<svg width="1260" height="1424" viewBox="0 0 1260 1424" fill="none" xmlns="http://www.w3.org/2000/svg">
<g opacity="0.5" filter="url(#filter0_f_38_237)">
<path d="M1382.61 359.009C1492.06 476.487 1363.05 638.934 1235 590.942C1199.4 577.592 1159.58 580.477 1125.18 597.271L1106.61 606.336C1065.17 626.597 1036.15 665.756 1028.65 711.162C1028.53 711.982 1028.38 712.82 1028.22 713.64C1020.15 759.032 1034.16 805.351 1066.59 837.775L1367.26 1080.22C1410.36 1116.21 1413.42 1181.81 1373.41 1221.92C1373.17 1222.17 1372.91 1222.43 1372.66 1222.68C1372.41 1222.92 1372.15 1223.19 1371.91 1223.43C1331.79 1263.44 1266.19 1260.38 1230.2 1217.28L987.758 916.606C955.334 884.182 909.015 870.166 863.623 878.239C862.802 878.399 861.965 878.543 861.145 878.668C815.738 886.166 776.58 915.187 756.319 956.625L747.236 975.22C730.46 1009.6 727.557 1049.4 740.925 1084.98C788.935 1213.01 626.54 1342.12 509.009 1232.61C431.421 1154.74 472.784 1029.19 566.474 999.207C601.941 987.867 630.834 961.613 647.187 928.145L675.704 869.773C686.407 847.822 683.666 821.958 669.02 802.652C668.812 802.374 668.604 802.096 668.396 801.818C653.82 782.373 629.732 772.474 605.666 776.822L542.961 788.183C505.457 794.964 472.383 816.756 450.721 848.208C403.534 916.779 298.448 933.758 235.22 869.199C180.682 814.661 181.073 725.816 236.132 670.757C285.678 620.03 364.962 617.085 418.612 655.986C448.8 677.905 487.127 685.681 524.073 679.007L586.9 667.628C610.809 663.298 630.245 645.841 637.344 622.599C637.839 620.993 638.353 619.369 638.9 617.78C646.556 594.779 640.691 569.54 623.663 552.512L588.115 516.963C561.245 490.093 524.412 476.173 486.255 476.872C371.054 478.97 293.757 334.054 387.491 237.509C484.002 143.775 628.936 221.054 626.837 336.256C626.156 374.429 640.093 411.28 666.946 438.133L702.494 473.681C719.522 490.709 744.762 496.574 767.762 488.918C769.351 488.37 770.975 487.857 772.582 487.361C795.824 480.262 813.298 460.809 817.61 436.917L828.989 374.09C835.663 337.144 827.87 298.835 805.968 268.63C767.068 214.979 770.013 135.695 820.739 86.1491C875.798 31.0903 964.644 30.6995 1019.18 85.2373C1083.74 148.465 1066.74 253.534 998.19 300.738C966.738 322.4 944.947 355.475 938.165 392.979L926.805 455.684C922.457 479.75 932.373 503.82 951.801 518.413L952.635 519.037C971.94 533.683 997.805 536.424 1019.76 525.721L1077.88 497.31C1112.31 480.517 1137.86 450.18 1150.32 414.01C1157.1 394.275 1168.38 375.704 1184.17 359.921C1239.21 304.879 1328.07 304.471 1382.61 359.009Z" fill="url(#paint0_linear_38_237)" fill-opacity="0.3"/>
</g>
<defs>
<filter id="filter0_f_38_237" x="0.575684" y="-149.407" width="1617.27" height="1617.27" filterUnits="userSpaceOnUse" color-interpolation-filters="sRGB">
<feFlood flood-opacity="0" result="BackgroundImageFix"/>
<feBlend mode="normal" in="SourceGraphic" in2="BackgroundImageFix" result="shape"/>
<feGaussianBlur stdDeviation="97" result="effect1_foregroundBlur_38_237"/>
</filter>
<linearGradient id="paint0_linear_38_237" x1="93.6777" y1="-56.3222" x2="1372.67" y2="1222.67" gradientUnits="userSpaceOnUse">
<stop stop-color="#4FF293"/>
<stop offset="1" stop-color="#2ED776" stop-opacity="0"/>
</linearGradient>
</defs>
</svg>
