<svg width="96" height="98" viewBox="0 0 96 98" fill="none" xmlns="http://www.w3.org/2000/svg">
<g clip-path="url(#clip0_35_65)">
<path d="M48 98C74.5097 98 96 76.062 96 49C96 21.938 74.5097 0 48 0C21.4903 0 0 21.938 0 49C0 76.062 21.4903 98 48 98Z" fill="black"/>
<path d="M48 96.1885C73.5299 96.1885 94.226 75.0615 94.226 48.9999C94.226 22.9384 73.5299 1.81128 48 1.81128C22.47 1.81128 1.77393 22.9384 1.77393 48.9999C1.77393 75.0615 22.47 96.1885 48 96.1885Z" fill="#23CE6B"/>
<path fill-rule="evenodd" clip-rule="evenodd" d="M93.3071 59.8167C93.0939 60.75 92.8528 61.6774 92.584 62.5988C92.3151 63.5203 92.0194 64.428 91.697 65.3218L91.124 66.2224V46.1473L91.7029 46.0638C91.7947 46.3764 91.8876 46.7043 91.9814 47.0477C92.0772 47.3993 92.1641 47.7296 92.241 48.035C92.4665 48.9324 92.6691 49.8419 92.8489 50.7634C93.0255 51.671 93.1792 52.5923 93.3101 53.5272L93.3137 53.5674V59.7486L93.3054 59.8143L93.3071 59.8167ZM87.7487 73.6784C87.4905 74.1125 87.229 74.535 86.964 74.9458C86.6991 75.3566 86.4249 75.7696 86.1415 76.1847L85.6022 77.0184V33.8122L86.1486 33.6559L86.3355 33.959L86.5194 34.2615C86.7279 34.6088 86.939 34.9699 87.1527 35.3448C87.3612 35.7118 87.5623 36.0756 87.7558 36.4363L87.7919 36.5766V73.5286L87.7487 73.6802V73.6784ZM82.1903 81.1903C81.9206 81.4886 81.6569 81.7734 81.3991 82.0445C81.1318 82.3258 80.8598 82.6052 80.5831 82.8827L80.0781 83.6743V26.5377L80.5914 26.3376L80.7995 26.5661L81.0065 26.797C81.2178 27.0338 81.4196 27.2629 81.612 27.4842C81.8044 27.7056 81.9997 27.9365 82.198 28.1768L82.2678 28.3651V80.9926L82.1903 81.1903ZM76.6319 86.4214C76.3705 86.6301 76.1048 86.8375 75.8348 87.0435C75.5852 87.2341 75.3138 87.4366 75.0235 87.6485L74.5546 87.9906V20.7976L75.0329 21.1746L75.2695 21.3641C75.3227 21.4067 75.4031 21.4712 75.506 21.5553C75.7157 21.7257 75.9081 21.8836 76.0831 22.0288C76.2581 22.174 76.4436 22.3319 76.6395 22.5024L76.7424 22.5912V86.332L76.6301 86.4214H76.6319ZM71.0734 90.2359C70.8328 90.3762 70.5649 90.5283 70.274 90.6905C69.983 90.8527 69.7099 91.0013 69.4656 91.1309L69.031 91.3618V17.1476L69.4733 17.4033L69.7436 17.5602L70.0144 17.7194C70.193 17.826 70.3761 17.9365 70.5637 18.0509C70.737 18.1569 70.9102 18.2646 71.0817 18.3729L71.2207 18.4605V90.1501L71.0734 90.2359ZM65.515 92.9956C65.2359 93.114 64.9674 93.2211 64.715 93.3212C64.4743 93.4165 64.2058 93.5194 63.9066 93.6307L63.5087 93.7787V14.5164L63.9149 14.6821L64.2147 14.8064C64.2626 14.826 64.3608 14.8656 64.5104 14.9319C64.6712 14.9998 64.8401 15.073 65.0171 15.1515C65.2052 15.2338 65.3719 15.309 65.5203 15.3753L65.6977 15.4546V92.9198L65.515 92.9956ZM59.9566 94.8952C59.6913 94.9674 59.4242 95.0374 59.1553 95.1053C58.896 95.1712 58.6269 95.2363 58.3482 95.3006L57.9869 95.3847V12.7411L58.3559 12.837C58.512 12.8772 58.6202 12.9062 58.69 12.9246C58.7598 12.9429 58.8762 12.9755 59.0223 13.0164C59.1684 13.0572 59.3233 13.1004 59.4912 13.1495C59.6852 13.2052 59.846 13.2525 59.9643 13.2886L60.176 13.3526V94.836L59.9566 94.8952ZM54.3982 96.0335C54.1084 96.0743 53.8376 96.1104 53.5969 96.1406C53.3563 96.1708 53.0825 96.1998 52.7898 96.2336L52.4645 96.2673V11.7283L52.7969 11.7703L53.1641 11.8182L53.5295 11.8691C53.6389 11.8851 53.7832 11.9064 53.9665 11.9349C54.0735 11.9514 54.2213 11.9751 54.4053 12.0053L54.6536 12.0461V95.9974L54.3982 96.0335ZM48.8397 96.4721H48.7723C48.4808 96.4768 48.1881 96.4828 47.9894 96.4828C47.8528 96.4828 47.6204 96.4786 47.3886 96.4745H47.2325L46.941 96.4697V11.4216H47.2473C47.3869 11.4216 47.582 11.4216 47.8298 11.4258C48.0142 11.4258 48.1798 11.4311 48.3282 11.4347L48.5849 11.4423L48.8451 11.4512L49.1307 11.4619V96.4662L48.8397 96.4721ZM43.2813 96.243C42.9892 96.2128 42.7219 96.1838 42.4747 96.1525C42.2276 96.1211 41.9632 96.0868 41.6729 96.0465L41.418 96.011V11.8052L41.6776 11.7727C41.8793 11.7472 42.0194 11.7294 42.0998 11.7206C42.2181 11.707 42.36 11.691 42.5285 11.6732L42.9023 11.6353L43.286 11.5992L43.6071 11.5708V96.2791L43.2813 96.246V96.243ZM37.6933 95.3148C37.4146 95.2505 37.1454 95.1858 36.8856 95.1207C36.6175 95.0536 36.3506 94.9843 36.0849 94.9129L35.8655 94.8537V12.9062L36.0873 12.847C36.257 12.8032 36.4101 12.7642 36.5456 12.7287C36.7159 12.686 36.8708 12.6488 37.0103 12.6156L37.3486 12.5381C37.5149 12.4986 37.631 12.4725 37.6969 12.4599L38.0517 12.3818V95.3977L37.6904 95.3143L37.6933 95.3148ZM32.1349 93.6574C31.8668 93.5579 31.5974 93.4549 31.3265 93.3484C31.0746 93.2489 30.8068 93.1406 30.5271 93.0252L30.3432 92.9488V14.7739L30.5283 14.6987C30.6761 14.6395 30.8387 14.5738 31.0143 14.5045C31.1728 14.4453 31.3413 14.3778 31.5193 14.3104L31.8315 14.192L32.1361 14.0795L32.5322 13.9356V93.7994L32.1349 93.6526V93.6574ZM26.5765 91.1676C26.3151 91.0291 26.0453 90.8827 25.7669 90.7284C25.4886 90.5741 25.2269 90.4218 24.9817 90.2714L24.8338 90.1856V17.5193L24.9817 17.4335C25.1715 17.324 25.3495 17.2216 25.5139 17.1292C25.6625 17.046 25.8381 16.9491 26.0407 16.8386L26.3127 16.6924C26.4018 16.6442 26.4947 16.5951 26.5912 16.545L27.0229 16.3183V91.3944L26.5901 91.1647L26.5765 91.1676ZM21.018 87.6994C20.7515 87.5052 20.4811 87.3036 20.2067 87.0944C19.9324 86.8852 19.6712 86.6773 19.4232 86.4705L19.3109 86.3817V21.3084L19.4238 21.2184C19.6308 21.0547 19.8174 20.9088 19.9838 20.781C20.162 20.6437 20.3496 20.502 20.5467 20.356C20.6455 20.282 20.7241 20.2228 20.7898 20.1784L21.031 20.0008L21.5 19.6604V88.0374L21.031 87.6964L21.018 87.6994ZM15.4596 82.9496C15.1837 82.6733 14.912 82.3955 14.6448 82.1161C14.3775 81.8367 14.113 81.5526 13.8512 81.2637L13.7737 81.0648V26.5928L13.8524 26.3933C14.0396 26.1885 14.2342 25.9799 14.436 25.7676C14.63 25.5636 14.8271 25.3591 15.0273 25.1543C15.0989 25.0815 15.171 25.0093 15.2432 24.9365C15.3153 24.8637 15.3863 24.7932 15.4578 24.7222L15.961 24.2232V83.4492L15.4578 82.9466L15.4596 82.9496ZM9.90117 76.2818C9.61616 75.8682 9.34119 75.4556 9.07628 75.044C8.81137 74.6324 8.5502 74.2125 8.29278 73.7844L8.2502 73.6328V33.8939L8.29514 33.7388C8.49225 33.4203 8.69192 33.1062 8.89415 32.7964C9.10348 32.4744 9.31301 32.1603 9.52273 31.854L9.71195 31.5788C9.79651 31.4568 9.86274 31.3621 9.90177 31.3065L10.4387 31.4764V78.1096L9.90059 76.2771L9.90117 76.2818ZM4.34275 65.4947C4.02225 64.6115 3.72836 63.7206 3.46109 62.822C3.19263 61.9175 2.95038 61.0053 2.73435 60.0854L2.72607 60.0179V46.3249L2.73908 46.2432C2.91766 45.6299 3.10748 45.02 3.30852 44.4135C3.50957 43.8069 3.72088 43.2077 3.94242 42.6157C4.00983 42.4346 4.07665 42.2606 4.14111 42.0924C4.21384 41.906 4.28244 41.7313 4.3463 41.5715L4.91515 41.681V69.3923L4.34275 65.4947Z" fill="black"/>
<path d="M48.0002 92.4645C73.4521 92.4645 94.0849 71.8097 94.0849 46.3308C94.0849 20.8518 73.4521 0.197021 48.0002 0.197021C22.5484 0.197021 1.91553 20.8518 1.91553 46.3308C1.91553 71.8097 22.5484 92.4645 48.0002 92.4645Z" fill="black"/>
<path d="M78.9597 77.3237C96.0584 60.2068 96.0583 32.4548 78.9597 15.338C61.861 -1.77891 34.1386 -1.77892 17.0399 15.338C-0.0587171 32.4548 -0.0587171 60.2068 17.0399 77.3237C34.1386 94.4405 61.861 94.4405 78.9597 77.3237Z" fill="#23CE6B"/>
<path d="M70.796 69.151C83.3858 56.5478 83.3858 36.1139 70.796 23.5106C58.2061 10.9074 37.794 10.9074 25.2041 23.5106C12.6143 36.1139 12.6143 56.5478 25.2041 69.151C37.794 81.7542 58.2061 81.7542 70.796 69.151Z" fill="black"/>
<path d="M68.8956 67.2486C80.4359 55.696 80.4359 36.9656 68.8956 25.413C57.3553 13.8605 38.6448 13.8605 27.1045 25.413C15.5642 36.9656 15.5642 55.696 27.1045 67.2486C38.6448 78.8012 57.3553 78.8012 68.8956 67.2486Z" fill="#23CE6B"/>
<path fill-rule="evenodd" clip-rule="evenodd" d="M60.1919 59.6995C60.2192 59.6559 60.2507 59.615 60.286 59.5776C60.3268 59.5359 60.3715 59.4982 60.4196 59.4651C60.4474 59.4456 60.4752 59.4278 60.5042 59.4095L60.5444 59.3722L60.5574 59.3509L60.7348 59.0549H60.7105L60.7017 58.7625L60.6916 58.4369V58.3582V58.3493L60.6822 58.0533C60.6774 57.8444 60.6751 57.6389 60.6822 57.4543C60.6857 57.3655 60.6916 57.2826 60.6999 57.2062C60.7082 57.1299 60.7206 57.0476 60.7366 56.9694C60.7503 56.9 60.7688 56.8315 60.7921 56.7646C60.8147 56.6979 60.8436 56.6334 60.8785 56.5722L60.9796 56.3947L61.0902 56.1969C61.1044 56.1715 61.131 56.123 61.1765 56.0377L61.2581 55.8862L61.3438 55.724L61.4071 55.6056L61.5816 55.2676C61.6762 55.0847 61.7672 54.9083 61.8536 54.7455C61.9399 54.5827 62.031 54.4116 62.1273 54.2447C62.2237 54.0778 62.3219 53.9108 62.4189 53.7575C62.5206 53.5977 62.6294 53.4373 62.7471 53.2763C62.8393 53.1496 62.9333 53.027 63.0285 52.9098C63.1237 52.7926 63.2308 52.6689 63.3467 52.5428C63.4626 52.4167 63.5832 52.293 63.7015 52.1729C63.8114 52.0659 63.9297 51.9562 64.0562 51.8437C63.9928 51.7648 63.925 51.6827 63.8528 51.5975C63.7499 51.4755 63.6541 51.3637 63.5572 51.2542L63.3863 51.0553L63.1651 50.7989C63.0841 50.7042 63.0031 50.6101 62.925 50.5178C62.8659 50.4497 62.7914 50.3591 62.6885 50.2348C62.598 50.1259 62.5188 50.0288 62.4555 49.9507C62.4147 49.8992 62.3645 49.8358 62.3036 49.7571C62.2427 49.6784 62.1853 49.6038 62.1492 49.5576C62.0966 49.4878 62.0469 49.4203 62.0002 49.3564C61.9535 49.2924 61.9062 49.2255 61.8654 49.1663L61.7241 48.9627L61.7282 48.9592L61.5626 48.7088L61.5384 48.665L61.5224 48.6294L61.5171 48.6194C61.4828 48.5602 61.458 48.5128 61.4373 48.4791C61.4124 48.4353 61.387 48.3867 61.3604 48.3352C61.3338 48.2837 61.3125 48.2393 61.2906 48.1938C61.2658 48.1393 61.2439 48.0919 61.2268 48.0523C61.2049 48.0002 61.1842 47.9487 61.1676 47.8978C61.1511 47.8469 61.1327 47.8019 61.115 47.7457C61.0973 47.6894 61.0854 47.648 61.0718 47.5965C61.0576 47.542 61.0458 47.4923 61.0369 47.4479C60.9122 47.1188 60.8046 46.8056 60.7129 46.5043C60.6213 46.203 60.5491 45.9284 60.4953 45.6756C60.4436 45.4333 60.4041 45.1885 60.377 44.9422C60.353 44.7226 60.3416 44.5018 60.3427 44.281C60.3427 43.5452 60.4841 42.9467 60.6668 42.2908H60.5964L60.7797 41.893C60.9086 41.4437 61.0505 40.9459 61.1688 40.3445C61.3109 39.6087 61.3959 38.863 61.4231 38.114C61.4457 37.5818 61.4202 37.0486 61.3468 36.5211C61.2746 36.0042 61.154 35.4952 60.9867 35.0009C60.8175 34.5018 60.6026 34.0195 60.3445 33.5601C60.2972 33.4743 60.2475 33.3902 60.1973 33.3062V29.8569C60.5344 30.1917 60.8526 30.545 61.1505 30.9153C61.5682 31.4347 61.9404 31.9892 62.2628 32.5727C62.576 33.1407 62.8367 33.7361 63.0415 34.3516C63.2449 34.964 63.3909 35.5939 63.4779 36.2334C63.566 36.8847 63.5963 37.5426 63.5684 38.1992C63.5383 39.0538 63.4428 39.9047 63.2828 40.7446C63.1474 41.4402 62.9871 41.9943 62.8458 42.4945L62.8381 42.5146L62.763 42.7839C62.7287 42.9076 62.695 43.0302 62.6637 43.1568C62.6323 43.2835 62.6045 43.3936 62.5839 43.5185C62.5523 43.6809 62.5298 43.845 62.5164 44.0098C62.5031 44.182 62.5013 44.3548 62.5111 44.5272C62.5234 44.7279 62.5483 44.9276 62.5856 45.1251C62.6309 45.3646 62.6883 45.6017 62.7577 45.8354C62.8334 46.0923 62.9274 46.3723 63.0433 46.6795C63.1592 46.9868 63.2946 47.3165 63.4572 47.6859L63.4626 47.6953C63.5069 47.7652 63.5536 47.8356 63.6033 47.9073C63.653 47.9789 63.7121 48.0618 63.7712 48.1411C63.8173 48.2038 63.88 48.2855 63.9545 48.382C64.029 48.4785 64.0947 48.5596 64.1485 48.6271C64.2348 48.7342 64.3058 48.8206 64.3655 48.8929C64.4128 48.9521 64.4903 49.042 64.5855 49.1539C64.7327 49.3274 64.8723 49.489 65.0077 49.6452L65.0213 49.6612L65.0396 49.6831L65.2649 49.9442L65.2779 49.959L65.4435 50.1513L65.4701 50.1821L65.5765 50.3106C65.6227 50.3656 65.6564 50.4065 65.6741 50.429L65.7717 50.5474C65.7941 50.5758 65.8249 50.6148 65.8657 50.6658C65.9361 50.7563 66.0035 50.8493 66.0673 50.9434C66.1265 51.0316 66.1856 51.121 66.2364 51.218C66.284 51.3038 66.3268 51.3922 66.3648 51.4826C66.4004 51.5691 66.4294 51.6582 66.4517 51.749C66.4795 51.8622 66.494 51.9782 66.4949 52.0947C66.4953 52.21 66.4777 52.3246 66.4428 52.4345C66.4072 52.5455 66.3532 52.6498 66.2832 52.7429C66.2092 52.8403 66.1225 52.9273 66.0253 53.0016C65.8521 53.136 65.6883 53.2715 65.5322 53.4095C65.3761 53.5474 65.2407 53.6752 65.1183 53.7995C64.9959 53.9239 64.8764 54.0559 64.7682 54.1837C64.66 54.3116 64.5648 54.4347 64.4725 54.5632C64.3803 54.6916 64.2898 54.8248 64.2082 54.9539C64.1266 55.0829 64.0426 55.225 63.9634 55.3682C63.9108 55.4612 63.8546 55.563 63.7967 55.6707C63.7523 55.7536 63.6955 55.8613 63.6311 55.9856L63.485 56.2668C63.3833 56.4633 63.2769 56.6687 63.1367 56.9327C63.0055 57.179 62.8742 57.4199 62.7465 57.6431C62.7329 57.6674 62.7465 57.7283 62.7689 57.8207C62.8073 57.968 62.8299 58.119 62.8363 58.2712V58.2783V58.2913L62.847 58.5725C62.847 58.6257 62.847 58.6802 62.8505 58.7352C62.8505 58.8086 62.8505 58.8809 62.8505 58.9531C62.8505 59.0253 62.8505 59.1028 62.8452 59.1668C62.8417 59.255 62.8352 59.3373 62.8269 59.4107C62.8182 59.4902 62.8054 59.5692 62.7884 59.6474C62.7732 59.7173 62.7535 59.7861 62.7293 59.8534C62.7061 59.92 62.6766 59.9842 62.6412 60.0452C62.5909 60.1299 62.5525 60.1932 62.5229 60.2388C62.4804 60.3063 62.4419 60.3667 62.4047 60.4199C62.3674 60.4732 62.3379 60.52 62.3095 60.5602C62.2811 60.6005 62.2503 60.6472 62.2172 60.6863L62.1735 60.7455L62.1333 60.797L62.1007 60.8355L62.0966 60.8414L62.0842 60.855L62.0676 60.8899L62.0481 61.0154L62.0392 61.0675L62.028 61.1356V61.1409L61.9996 61.3061L61.9748 61.4446L61.9452 61.6056L61.9009 61.8359C61.8352 62.1879 61.7325 62.5319 61.5946 62.8623C61.4653 63.1712 61.298 63.4627 61.0967 63.7301C60.9094 63.9768 60.6923 64.1993 60.4504 64.3925C60.3715 64.4565 60.2895 64.5172 60.2044 64.5748V60.7946L60.1919 59.6995ZM49.6073 64.7353C49.5541 65.0147 49.5168 65.2969 49.4955 65.5806C49.4753 65.8593 49.4716 66.139 49.4843 66.4182C49.4973 66.7142 49.5286 67.0427 49.5813 67.4097L49.6221 67.6974L49.3353 67.743L47.8085 67.9857L47.5128 68.0324L47.4697 67.7365C47.3136 66.6709 47.3011 65.8742 47.381 65.1319C47.449 64.5008 47.5826 63.9178 47.7511 63.2376H47.653L47.8505 62.8416L47.857 62.8173L46.4514 61.6926L46.2521 61.5334L46.3793 61.3138L46.7341 60.6982L46.8612 60.4785L47.0977 60.5721L49.4287 61.4997L49.6256 61.5748C49.8515 61.6607 50.0768 61.7459 50.2814 61.8205C50.5309 61.9122 50.784 62.0028 51.0306 62.0881C51.2772 62.1733 51.5385 62.2615 51.8194 62.3515C52.1003 62.4414 52.3753 62.5291 52.642 62.6031C52.9086 62.677 53.1883 62.7552 53.4935 62.8321C53.7891 62.9055 54.0747 62.9724 54.3526 63.0293C54.6306 63.0861 54.9233 63.1388 55.216 63.1826C55.4998 63.2246 55.7813 63.2578 56.058 63.2802C56.2999 63.2992 56.5394 63.3098 56.7747 63.3098C56.9984 63.3107 57.222 63.3001 57.4447 63.2779C57.6565 63.2569 57.8666 63.2207 58.0732 63.1696C58.2527 63.1262 58.4278 63.0668 58.5966 62.992C58.7467 62.9247 58.8887 62.8407 59.02 62.7416C59.1434 62.6472 59.2546 62.5378 59.3511 62.416C59.456 62.2832 59.5432 62.1373 59.6107 61.9821C59.6845 61.8111 59.7388 61.6324 59.7727 61.4493L59.8058 61.2718L59.8448 61.0622L59.865 60.9527L59.8774 60.8823L59.8992 60.7603L59.9223 60.6259L59.9436 60.5004L59.9602 60.398V60.3886L59.9785 60.2749V60.2702L59.9862 60.2246V60.2199L59.9939 60.179V60.1743C59.9998 60.1441 60.0039 60.1257 60.0069 60.1151C60.011 60.0997 60.0163 60.0796 60.024 60.0559C60.024 60.0482 60.0335 60.0275 60.0441 59.9967C60.0506 59.9789 60.0571 59.9606 60.0648 59.9422V59.9369C60.0921 59.8685 60.1243 59.8023 60.1612 59.7386C60.1683 59.7262 60.1754 59.7143 60.1825 59.7037V60.816V64.5962C60.0127 64.7116 59.8349 64.8147 59.6503 64.9046C59.3781 65.0359 59.0947 65.1425 58.8035 65.223C58.5034 65.3057 58.1977 65.3665 57.8888 65.4048C57.5631 65.4452 57.2353 65.4667 56.9072 65.4693C56.5666 65.4728 56.2248 65.4598 55.8842 65.4326C55.5684 65.4071 55.2485 65.3698 54.9274 65.3225C54.6176 65.2769 54.2965 65.2195 53.9689 65.1532C53.6413 65.0869 53.3243 65.0141 53.0151 64.9371C52.6902 64.8562 52.3766 64.772 52.0743 64.6844C51.8786 64.6281 51.6663 64.566 51.4428 64.4949C51.2192 64.4239 51.0093 64.3588 50.8313 64.2996C50.6746 64.2481 50.4765 64.1812 50.24 64.0989C50.0626 64.0397 49.9095 63.9805 49.7746 63.9343C49.7055 64.2191 49.6445 64.4843 49.5972 64.7394L49.6073 64.7353ZM60.1919 33.3026V29.8533C60.0406 29.703 59.8849 29.5552 59.7248 29.4099C59.1879 28.9253 58.617 28.4798 58.0165 28.0769C57.3854 27.6523 56.7272 27.2695 56.0462 26.9308C55.3359 26.5773 54.6054 26.2661 53.8583 25.9991C53.3959 25.8334 52.9199 25.6818 52.4338 25.5445C51.9477 25.4072 51.4599 25.2876 50.962 25.1822C50.4641 25.0769 49.9568 24.9875 49.4524 24.9147C48.948 24.8419 48.4329 24.7844 47.9214 24.7448C47.4196 24.7053 46.9071 24.682 46.384 24.6749C45.8715 24.6686 45.3642 24.6787 44.8619 24.7051C44.3597 24.7316 43.8602 24.7748 43.3635 24.8347C42.8731 24.8939 42.3849 24.9705 41.8988 25.0644C41.3721 25.1658 40.8506 25.2882 40.3342 25.4314C39.8292 25.5723 39.3321 25.7335 38.8429 25.9151C38.3643 26.093 37.8958 26.2915 37.4373 26.5106C36.9855 26.7268 36.5477 26.9618 36.124 27.2156C35.7002 27.4693 35.2961 27.7397 34.9118 28.0266C34.5284 28.3117 34.1601 28.6166 33.8083 28.9399C33.462 29.2575 33.133 29.5934 32.8226 29.9463C31.9749 30.9146 31.2772 32.0049 30.753 33.1807C30.4131 33.9437 30.1437 34.7363 29.9482 35.5485C29.7441 36.3993 29.6118 37.2658 29.5526 38.1389C29.4898 39.0666 29.4953 39.9977 29.5692 40.9246C29.6475 41.9095 29.7871 42.8885 29.9872 43.8559C30.2035 44.9016 30.4751 45.935 30.8009 46.9518C31.1336 47.9992 31.5363 49.086 32.009 50.2123C32.4725 51.3134 33.0047 52.4509 33.6055 53.6249C34.5995 55.5582 35.0182 57.3027 35.137 59.0768C35.2553 60.8663 35.0738 62.6966 34.865 64.7808C34.8479 64.9525 34.8059 65.297 34.761 65.6688V65.6948L34.7551 65.7404V65.7481C34.7273 65.9766 34.6959 66.2163 34.6658 66.5016C34.6392 66.7384 34.6137 66.9817 34.5913 67.2315L34.5605 67.579L34.5333 67.888L34.8438 67.8992L35.192 67.9117L36.173 67.9466L36.4864 67.9578L36.765 67.9679L36.7898 67.6885L36.8176 67.3748C36.8223 67.3197 36.8294 67.2386 36.8377 67.1333L36.8602 66.8527L36.8791 66.5958L36.8968 66.3542V66.3483C36.9146 66.105 36.9323 65.8564 36.9518 65.6037C36.9713 65.3509 36.9891 65.1384 37.0039 64.9874C37.1221 63.8314 37.2238 62.7534 37.28 61.7199C37.3424 60.7144 37.3388 59.7059 37.2694 58.7009C37.1956 57.6996 37.0225 56.7081 36.7525 55.7411C36.4469 54.6679 36.033 53.6287 35.5173 52.6393C34.9504 51.5343 34.4519 50.473 34.0218 49.4552C33.5787 48.4086 33.2013 47.4004 32.8894 46.4303C32.5835 45.49 32.3269 44.5343 32.1207 43.5671C31.9321 42.6824 31.7988 41.7868 31.7216 40.8855C31.6507 40.0662 31.6393 39.2428 31.6873 38.4218C31.7327 37.6604 31.8412 36.904 32.0119 36.1606C32.1742 35.4558 32.4019 34.7677 32.6919 34.1053C33.1304 33.1008 33.7229 32.1711 34.4482 31.3498C34.7105 31.0514 34.9889 30.7674 35.2819 30.4991C35.5812 30.2265 35.8944 29.9697 36.2204 29.7296C36.5527 29.4837 36.898 29.2541 37.2563 29.0406C37.6226 28.8227 38.0024 28.6203 38.3958 28.4332C38.7892 28.2462 39.1982 28.0743 39.6228 27.9176C40.0521 27.7598 40.4877 27.6193 40.9296 27.4962C41.3779 27.3726 41.8365 27.2655 42.3056 27.1747C42.7385 27.0913 43.1796 27.0226 43.6261 26.9687C44.0814 26.9139 44.5347 26.8744 44.9861 26.8503C45.4497 26.8255 45.9115 26.8166 46.3686 26.8225C46.8257 26.8284 47.2893 26.8503 47.76 26.887C48.2307 26.9237 48.6872 26.9752 49.1449 27.041C49.6026 27.1067 50.0626 27.1889 50.5126 27.2842C50.9626 27.3795 51.4085 27.4891 51.849 27.6134C52.2895 27.7377 52.7117 27.8726 53.1363 28.0277C53.7851 28.2593 54.4201 28.5281 55.038 28.8328C55.624 29.1221 56.191 29.4483 56.7357 29.8095C57.2524 30.1517 57.7442 30.5301 58.2075 30.9419C58.6437 31.3299 59.0484 31.7519 59.4179 32.204C59.7015 32.5513 59.9601 32.9188 60.1919 33.3026Z" fill="black"/>
</g>
<defs>
<clipPath id="clip0_35_65">
<rect width="96" height="98" fill="white"/>
</clipPath>
</defs>
</svg>
