<svg width="26" height="26" viewBox="0 0 26 26" fill="none" xmlns="http://www.w3.org/2000/svg">
<path fill-rule="evenodd" clip-rule="evenodd" d="M15.7068 8.29279C15.8943 8.48031 15.9996 8.73462 15.9996 8.99979C15.9996 9.26495 15.8943 9.51926 15.7068 9.70679L12.4138 12.9998L15.7068 16.2928C15.8889 16.4814 15.9897 16.734 15.9875 16.9962C15.9852 17.2584 15.88 17.5092 15.6946 17.6946C15.5092 17.88 15.2584 17.9852 14.9962 17.9875C14.734 17.9897 14.4814 17.8889 14.2928 17.7068L10.2928 13.7068C10.1053 13.5193 10 13.265 10 12.9998C10 12.7346 10.1053 12.4803 10.2928 12.2928L14.2928 8.29279C14.4803 8.10532 14.7346 8 14.9998 8C15.265 8 15.5193 8.10532 15.7068 8.29279Z" fill="white" fill-opacity="0.2"/>
<rect x="0.5" y="0.5" width="25" height="25" rx="4.5" stroke="white" stroke-opacity="0.2"/>
</svg>
