<svg width="96" height="98" viewBox="0 0 96 98" fill="none" xmlns="http://www.w3.org/2000/svg">
<g clip-path="url(#clip0_36_74)">
<path d="M48 98C74.5097 98 96 76.062 96 49C96 21.938 74.5097 0 48 0C21.4903 0 0 21.938 0 49C0 76.062 21.4903 98 48 98Z" fill="black"/>
<path d="M48 96.1886C73.5299 96.1886 94.226 75.0615 94.226 48.9999C94.226 22.9384 73.5299 1.81128 48 1.81128C22.47 1.81128 1.77393 22.9384 1.77393 48.9999C1.77393 75.0615 22.47 96.1886 48 96.1886Z" fill="#23CE6B" fill-opacity="0.5"/>
<path fill-rule="evenodd" clip-rule="evenodd" d="M93.3072 59.8167C93.0943 60.75 92.8533 61.6774 92.584 62.5989C92.3148 63.5203 92.0191 64.428 91.6971 65.3218L91.1246 66.2224V46.1473L91.7029 46.0639C91.7944 46.3764 91.8872 46.7043 91.9815 47.0477C92.0772 47.3993 92.1642 47.7296 92.2411 48.0351C92.4669 48.9325 92.6696 49.8419 92.8489 50.7634C93.0259 51.671 93.1797 52.5923 93.3102 53.5272L93.3137 53.5674V59.7486L93.3054 59.8143L93.3072 59.8167ZM87.7488 73.6784C87.4902 74.1125 87.2286 74.535 86.9641 74.9458C86.6996 75.3566 86.4256 75.7696 86.1421 76.1848L85.6023 77.0184V33.8122L86.1487 33.6559L86.3355 33.959L86.5194 34.2615C86.7284 34.6088 86.9395 34.9699 87.1527 35.3448C87.3617 35.7118 87.5627 36.0756 87.7559 36.4363L87.792 36.5766V73.5287L87.7488 73.6802V73.6784ZM82.1904 81.1903C81.9207 81.4887 81.657 81.7734 81.3991 82.0445C81.1323 82.3259 80.8603 82.6053 80.5831 82.8827L80.0788 83.6743V26.5377L80.5914 26.3376L80.7996 26.5661L81.0071 26.797C81.2176 27.0338 81.4195 27.2629 81.6126 27.4843C81.8058 27.7056 82.0011 27.9365 82.1986 28.1768L82.2678 28.3651V80.9926L82.1904 81.1903ZM76.6319 86.4214C76.3705 86.6302 76.105 86.8375 75.8354 87.0435C75.5853 87.2341 75.3145 87.4366 75.0235 87.6485L74.5552 87.9907V20.7976L75.033 21.1746C75.0921 21.222 75.1743 21.2865 75.2695 21.3641C75.3227 21.4067 75.4031 21.4712 75.506 21.5553C75.7161 21.7257 75.9087 21.8836 76.0838 22.0288C76.2588 22.1741 76.4441 22.3319 76.6396 22.5024L76.7425 22.5912V86.332L76.6301 86.4214H76.6319ZM71.0735 90.2359C70.8322 90.3762 70.5644 90.5284 70.2734 90.6905C69.9825 90.8527 69.7093 91.0013 69.4651 91.131L69.0311 91.3618V17.1476L69.4734 17.4033C69.5822 17.4667 69.672 17.5181 69.743 17.5602L70.0138 17.7194C70.1928 17.826 70.3759 17.9365 70.5632 18.0509C70.737 18.1571 70.9097 18.2644 71.0812 18.3729L71.2201 18.4605V90.1501L71.0735 90.2359ZM65.5151 92.9956C65.236 93.114 64.9675 93.2211 64.715 93.3212C64.4743 93.4165 64.2059 93.5195 63.9072 93.6308L63.5087 93.7788V14.5164L63.9149 14.6821L64.2147 14.8064C64.2626 14.826 64.3608 14.8656 64.5104 14.9319C64.6712 14.9998 64.8402 15.073 65.0172 15.1515C65.2052 15.2338 65.372 15.309 65.5204 15.3753L65.6978 15.4546V92.9198L65.5151 92.9956ZM59.9566 94.8952C59.6913 94.9674 59.4242 95.0375 59.1554 95.1053C58.8958 95.171 58.6273 95.2362 58.3482 95.3007L57.9869 95.3847V12.7411L58.3565 12.837L58.6906 12.9246L59.0229 13.0164C59.1672 13.0558 59.3233 13.1002 59.4913 13.1495C59.6852 13.2052 59.8461 13.2525 59.9643 13.2887L60.1754 13.3526V94.836L59.9566 94.8952ZM54.3982 96.0335C54.1084 96.0744 53.8382 96.1105 53.5969 96.1407C53.3557 96.1708 53.0825 96.1999 52.7898 96.2336L52.4646 96.2673V11.7283L52.7969 11.7703L53.1641 11.8182L53.5295 11.8691C53.6389 11.8851 53.7832 11.9064 53.9665 11.9349C54.0736 11.9514 54.2214 11.9751 54.4053 12.0053L54.6536 12.0461V95.9974L54.3982 96.0335ZM48.8398 96.4721H48.7724C48.4808 96.4769 48.1887 96.4828 47.9894 96.4828C47.8528 96.4828 47.621 96.4787 47.3886 96.4745H47.2325L46.9416 96.4698V11.4216H47.2473C47.3869 11.4216 47.582 11.4216 47.8298 11.4258C48.0143 11.4258 48.1798 11.4311 48.3283 11.4347L48.5849 11.4423L48.8457 11.4512L49.1307 11.4619V96.4662L48.8398 96.4721ZM43.2813 96.2431C42.9892 96.2129 42.7219 96.1839 42.4748 96.1525C42.2276 96.1211 41.9639 96.0868 41.6729 96.0465L41.4181 96.011V11.8052L41.6777 11.7727C41.8793 11.7472 42.0194 11.7294 42.0999 11.7206C42.2181 11.707 42.36 11.691 42.5286 11.6732L42.9023 11.6353L43.2861 11.5992L43.6071 11.5708V96.2792L43.2813 96.246V96.2431ZM37.6933 95.3149C37.4148 95.2504 37.1452 95.1858 36.8862 95.1207C36.6177 95.0536 36.3506 94.9844 36.0849 94.9129L35.8656 94.8538V12.9062L36.0873 12.847C36.2576 12.8032 36.4102 12.7642 36.5462 12.7287C36.7159 12.686 36.8708 12.6488 37.0103 12.6156L37.3486 12.5381C37.5154 12.5002 37.6307 12.4741 37.6969 12.4599L38.0546 12.3818V95.3978L37.6933 95.3149ZM32.1349 93.6574C31.8664 93.558 31.597 93.455 31.3266 93.3484C31.0741 93.249 30.8062 93.1406 30.5265 93.0252L30.3426 92.9488V14.7739L30.5277 14.6987C30.6755 14.6395 30.8381 14.5738 31.0138 14.5045C31.1722 14.4453 31.3408 14.3778 31.5187 14.3104L31.831 14.192L32.1355 14.0795L32.5317 13.9357V93.7995L32.1349 93.6527V93.6574ZM26.5765 91.1677C26.3151 91.0291 26.0453 90.8827 25.7669 90.7284C25.4886 90.5741 25.2273 90.4218 24.9829 90.2714L24.835 90.1856V17.5193L24.9829 17.4335C25.1727 17.324 25.3507 17.2216 25.515 17.1292C25.6641 17.0458 25.8391 16.9516 26.0419 16.8386L26.3139 16.6924C26.4034 16.6442 26.4962 16.5951 26.5924 16.545L27.0241 16.3183V91.3944L26.5912 91.1647L26.5765 91.1677ZM21.018 87.6994C20.7508 87.5052 20.4801 87.3036 20.2062 87.0944C19.9322 86.8853 19.6716 86.6773 19.4244 86.4705L19.3121 86.3817V21.3084L19.4256 21.2184C19.6326 21.0547 19.819 20.9088 19.985 20.781C20.1632 20.6448 20.3508 20.5032 20.5479 20.356C20.6467 20.282 20.7253 20.2228 20.791 20.1784C20.8945 20.102 20.9737 20.0446 21.0328 20.0008L21.5012 19.6604V88.0374L21.0328 87.6964L21.018 87.6994ZM15.4596 82.9496C15.1837 82.6733 14.912 82.3955 14.6448 82.1161C14.3775 81.8367 14.113 81.5526 13.8512 81.2637L13.7737 81.0648V26.5928L13.8524 26.3933C14.04 26.1885 14.2346 25.9799 14.436 25.7676C14.63 25.5636 14.8271 25.3591 15.0273 25.1543C15.0983 25.0815 15.1705 25.0093 15.2426 24.9365C15.3147 24.8637 15.3863 24.7932 15.4572 24.7222L15.9605 24.2232V83.4492L15.4572 82.9466L15.4596 82.9496ZM9.90117 76.2818C9.61615 75.8683 9.3402 75.4557 9.07332 75.0441C8.80644 74.6325 8.54547 74.2126 8.29041 73.7844L8.24724 73.6329V33.8939L8.29278 33.7388C8.48988 33.4204 8.68936 33.1062 8.8912 32.7964C9.10132 32.4744 9.31084 32.1603 9.51977 31.854L9.70899 31.5788L9.8988 31.3065L10.4363 31.4764V77.1096L9.89821 76.2771L9.90117 76.2818ZM4.34274 65.4947C4.02224 64.6115 3.72836 63.7206 3.46108 62.822C3.19262 61.9175 2.95038 61.0053 2.73435 60.0854L2.72607 60.0179V46.3249L2.73908 46.2432C2.91766 45.63 3.10747 45.02 3.30852 44.4135C3.50957 43.8069 3.72087 43.2077 3.94241 42.6157C4.00982 42.4346 4.07626 42.2602 4.1417 42.0925C4.21384 41.906 4.28243 41.7314 4.34629 41.5715L4.91573 41.681V66.3923L4.34274 65.4947Z" fill="black"/>
<path d="M80.5865 78.9523C98.5837 60.9359 98.5837 31.7257 80.5865 13.7093C62.5893 -4.30703 33.4101 -4.30702 15.413 13.7093C-2.58422 31.7257 -2.58423 60.9359 15.413 78.9523C33.4101 96.9686 62.5893 96.9686 80.5865 78.9523Z" fill="black"/>
<path d="M78.9597 77.3239C96.0583 60.207 96.0583 32.4551 78.9597 15.3382C61.861 -1.77868 34.1386 -1.77868 17.0399 15.3382C-0.058722 32.4551 -0.0587206 60.207 17.0399 77.3239C34.1386 94.4408 61.861 94.4408 78.9597 77.3239Z" fill="#23CE6B" fill-opacity="0.5"/>
<path d="M48.0001 78.6036C65.8048 78.6036 80.2384 64.1547 80.2384 46.331C80.2384 28.5073 65.8048 14.0583 48.0001 14.0583C30.1953 14.0583 15.7617 28.5073 15.7617 46.331C15.7617 64.1547 30.1953 78.6036 48.0001 78.6036Z" fill="black"/>
<path d="M48 75.9132C64.3204 75.9132 77.5507 62.6688 77.5507 46.331C77.5507 29.9932 64.3204 16.7488 48 16.7488C31.6795 16.7488 18.4492 29.9932 18.4492 46.331C18.4492 62.6688 31.6795 75.9132 48 75.9132Z" fill="#23CE6B" fill-opacity="0.5"/>
<path fill-rule="evenodd" clip-rule="evenodd" d="M54.5596 57.7608C54.6967 57.746 54.8398 57.7276 54.9877 57.7051C55.1793 57.6761 55.375 57.6406 55.5731 57.5986C55.7605 57.5595 55.9551 57.5127 56.1549 57.4583C56.3465 57.4062 56.5393 57.3482 56.7303 57.2848C56.9213 57.2215 57.1034 57.1546 57.2932 57.0794C57.4769 57.006 57.6608 56.9271 57.8449 56.8427C58.029 56.7582 58.2086 56.669 58.3836 56.5751C58.5583 56.482 58.7323 56.3833 58.9058 56.2791C59.0792 56.1749 59.2477 56.0666 59.4113 55.9541C59.5745 55.8421 59.7378 55.7237 59.901 55.599C60.0642 55.4743 60.2219 55.347 60.374 55.2172C60.5262 55.0869 60.6772 54.9504 60.827 54.8075C60.9768 54.6647 61.1209 54.5196 61.2592 54.3724C61.4011 54.2229 61.5391 54.0692 61.6731 53.9113C61.8072 53.7535 61.9381 53.5911 62.0658 53.4241C62.1929 53.2578 62.3177 53.0873 62.4383 52.9121C62.7349 52.4855 63.0041 52.0404 63.2443 51.5796C63.4633 51.1604 63.6499 50.725 63.8025 50.2773C63.9429 49.8658 64.046 49.4424 64.1106 49.0123C64.1711 48.6079 64.1909 48.1984 64.1697 47.79C64.148 47.3854 64.0822 46.9844 63.9734 46.5942C63.8641 46.204 63.7126 45.8268 63.5216 45.4695C63.3229 45.0999 63.0867 44.7518 62.8168 44.4306C62.5306 44.0906 62.2139 43.7776 61.8707 43.4954C61.7295 43.377 61.5843 43.2657 61.4348 43.1615C61.2835 43.0532 61.1256 42.949 60.9618 42.8495C60.798 42.7501 60.6289 42.653 60.4556 42.5619C60.2824 42.4707 60.1008 42.3843 59.9199 42.3002C59.7385 42.2185 59.5535 42.1418 59.3646 42.0699C59.1758 41.9981 58.9846 41.9316 58.791 41.8705C58.5965 41.8113 58.4002 41.7521 58.2027 41.7035C58.0052 41.655 57.8035 41.6088 57.6031 41.5697C57.4026 41.5307 57.2069 41.4993 57.0118 41.4727C56.8166 41.446 56.6168 41.4247 56.4169 41.4093C56.217 41.3939 56.0183 41.3839 55.8256 41.3803C55.6328 41.3768 55.4359 41.3803 55.2431 41.3862C55.0504 41.3922 54.8552 41.4081 54.6648 41.4277L54.5619 41.4389V44.05C54.6347 44.0399 54.7086 44.0317 54.7831 44.0246C54.9214 44.0107 55.062 44.0015 55.2047 43.9967C55.2881 43.9938 55.3738 43.9926 55.4607 43.9926C55.5476 43.9926 55.6381 43.9926 55.7256 43.9973C55.8132 44.0021 55.903 44.005 55.9911 44.0109C56.0792 44.0169 56.1685 44.0246 56.259 44.0334L56.3578 44.0435L56.5062 44.0589L56.4222 44.1814L56.366 44.2637L56.3448 44.2951L56.3388 44.3034C56.3146 44.3413 56.2898 44.3809 56.2667 44.4218C56.2425 44.4656 56.2194 44.5094 56.1987 44.552C56.178 44.5946 56.1591 44.639 56.1396 44.6834C56.123 44.7254 56.1082 44.7686 56.0952 44.8118C56.0649 44.9081 56.0451 45.0073 56.0361 45.1078C56.0282 45.1991 56.032 45.291 56.0473 45.3813C56.0616 45.4633 56.0871 45.543 56.123 45.6181C56.1591 45.6929 56.2046 45.7627 56.2584 45.8259L56.3678 45.92C56.437 45.9656 56.5015 46.0106 56.5594 46.0561C56.6185 46.1015 56.6751 46.1499 56.7291 46.2012C56.7801 46.2491 56.8279 46.3003 56.8722 46.3545C56.9131 46.4046 56.9503 46.4576 56.9834 46.5131C57.0085 46.5556 57.0302 46.5999 57.0484 46.6457C57.0844 46.734 57.1044 46.828 57.1076 46.9233C57.1086 46.9705 57.1054 47.0176 57.0981 47.0642C57.0892 47.1214 57.0759 47.1778 57.0585 47.2329C57.0402 47.2917 57.018 47.3493 56.9923 47.4052C56.9652 47.4639 56.9352 47.5212 56.9024 47.5769C56.8681 47.6361 56.8296 47.6952 56.7888 47.7497C56.748 47.8042 56.6919 47.8758 56.6363 47.9391C56.5807 48.0025 56.5222 48.064 56.4589 48.1238C56.3956 48.1836 56.3312 48.2422 56.2614 48.3014C56.1916 48.3606 56.1201 48.4151 56.0461 48.4683C55.9622 48.5275 55.877 48.5867 55.7907 48.6376C55.7044 48.6903 55.6133 48.7394 55.5264 48.7844C55.4377 48.8294 55.3472 48.8705 55.2549 48.9076C55.1657 48.9437 55.074 48.9762 54.9812 49.004C54.8948 49.0301 54.8067 49.0526 54.7174 49.0715C54.6642 49.0822 54.6116 49.0917 54.5584 49.0999V51.7116C54.695 51.6962 54.8321 51.6743 54.9723 51.6471C55.1355 51.6151 55.2969 51.5749 55.4548 51.5287C55.6127 51.4825 55.7724 51.4263 55.9279 51.3647C56.0834 51.3032 56.2419 51.2327 56.395 51.157C56.5482 51.0812 56.7001 50.9971 56.8486 50.9084C56.997 50.8196 57.1442 50.7219 57.282 50.6224C57.4198 50.523 57.5682 50.4064 57.7048 50.2892C57.8414 50.172 57.9703 50.0524 58.0945 49.9233C58.2186 49.7943 58.3351 49.6658 58.4451 49.5309C58.5551 49.3959 58.658 49.2574 58.7532 49.1165C58.8484 48.9756 58.9377 48.8271 59.0175 48.6785C59.0958 48.5323 59.1662 48.3822 59.2286 48.2286C59.2894 48.0802 59.3415 47.9284 59.3847 47.774C59.4272 47.6244 59.4605 47.4724 59.4847 47.3188C59.5134 47.1378 59.529 46.955 59.5314 46.7718C59.5339 46.5948 59.5229 46.4179 59.4983 46.2426C59.4737 46.0708 59.4359 45.9013 59.3853 45.7353C59.3368 45.5779 59.2765 45.4243 59.205 45.2759L59.1931 45.2517L59.1772 45.2191L59.1719 45.2091L59.1488 45.1641L59.1186 45.1049L59.1654 45.0587L59.2464 44.98L59.2931 44.9344L59.3522 44.9658C59.4385 45.0123 59.5245 45.0619 59.61 45.1143C59.6952 45.1658 59.7786 45.2191 59.8584 45.273C59.9382 45.3268 60.018 45.3825 60.0949 45.4387C60.1718 45.495 60.2463 45.5571 60.3178 45.6163C60.5222 45.7846 60.711 45.9711 60.882 46.1733C61.0429 46.3645 61.184 46.5715 61.303 46.7913C61.4175 47.0044 61.5081 47.2296 61.5732 47.4626C61.6376 47.6944 61.6757 47.9326 61.6867 48.1729C61.698 48.4304 61.6826 48.6883 61.6406 48.9425C61.5949 49.2171 61.5249 49.4871 61.4313 49.7493C61.3292 50.0354 61.2063 50.3136 61.0635 50.5816C60.906 50.8777 60.7311 51.1641 60.5396 51.4393C60.445 51.5767 60.3498 51.7077 60.254 51.8324C60.1582 51.9571 60.0578 52.0814 59.953 52.2053C59.8495 52.3278 59.7443 52.4421 59.6378 52.5605C59.5314 52.6789 59.4184 52.7872 59.3067 52.8932C59.1949 52.9991 59.0784 53.1057 58.9625 53.2045C58.8466 53.3034 58.726 53.4034 58.6077 53.4946C58.4895 53.5857 58.3612 53.6781 58.2364 53.7633C58.1116 53.8486 57.9786 53.9344 57.8514 54.0114C57.7147 54.0938 57.5792 54.1706 57.4452 54.2416C57.3086 54.315 57.1696 54.3837 57.0313 54.4476C56.8929 54.5116 56.7445 54.5755 56.6049 54.6311C56.4654 54.6868 56.3164 54.74 56.1691 54.7892C56.0219 54.8383 55.867 54.8851 55.7239 54.9236C55.5731 54.9644 55.4223 55.0005 55.2733 55.0319C55.1176 55.065 54.967 55.0925 54.8215 55.1142C54.7364 55.1272 54.6512 55.139 54.5672 55.1485L54.5596 57.7608ZM32.1236 41.7136C31.7145 41.9109 31.2852 42.1258 30.8357 42.3582C30.3863 42.5907 29.9277 42.8371 29.4597 43.0976L29.1304 43.2793L29.254 43.6345L29.7956 45.1735L29.9683 45.666L30.4266 45.4133C30.8531 45.1765 31.27 44.9523 31.6772 44.7408C32.0844 44.5293 32.4727 44.3334 32.8421 44.153C33.2134 43.9731 33.5749 43.8065 33.9266 43.6534C34.2782 43.5003 34.6149 43.3641 34.9366 43.245C35.2472 43.1297 35.5482 43.0289 35.8395 42.9425C36.1308 42.856 36.4101 42.7862 36.6774 42.7329C36.9343 42.6806 37.1939 42.6431 37.455 42.6205C37.6941 42.5997 37.9344 42.5959 38.174 42.6092C38.378 42.6206 38.5807 42.6485 38.7802 42.6927C38.9764 42.7356 39.1686 42.795 39.3549 42.8703C39.5443 42.948 39.727 43.041 39.9013 43.1485C40.0835 43.262 40.2572 43.3886 40.4211 43.5273C40.6081 43.6858 40.7845 43.8565 40.9491 44.0382C41.1308 44.2378 41.3019 44.4469 41.4618 44.6645C41.6297 44.8918 41.7965 45.1398 41.962 45.4085C42.1276 45.6773 42.2924 45.9656 42.4564 46.2734L42.7355 46.7967L42.7917 46.9026L42.8011 46.9204L42.8094 46.9364L42.8177 46.9518C43.1234 47.5301 43.4463 48.1404 43.7809 48.7525C44.1156 49.3645 44.4763 50.0044 44.8542 50.6349C45.2321 51.2653 45.6265 51.8857 46.0457 52.49C46.4569 53.0874 46.8978 53.6636 47.3667 54.2168C47.8329 54.7684 48.3397 55.2842 48.8829 55.76C49.3966 56.211 49.9568 56.6061 50.5539 56.9386C51.1291 57.2581 51.7461 57.4956 52.387 57.6442C53.0481 57.7938 53.7287 57.8376 54.4034 57.7738C54.4537 57.7697 54.5051 57.7643 54.5572 57.7584V55.1473C54.4921 55.155 54.4277 55.1621 54.3638 55.168C53.3213 55.2633 52.3433 54.9608 51.4285 54.3878C50.5137 53.8148 49.6735 52.9825 48.8858 52.0064C48.0982 51.0303 47.3892 49.9346 46.7299 48.8099C46.0705 47.6852 45.4721 46.5605 44.9323 45.537L44.5698 44.8515L44.5662 44.8432C44.3573 44.4514 44.1452 44.0841 43.93 43.7416C43.7147 43.3991 43.4948 43.0806 43.2701 42.7862C43.0563 42.5044 42.8271 42.2346 42.5835 41.9782C42.359 41.7409 42.1192 41.5187 41.8657 41.3128C41.6197 41.1127 41.3589 40.9315 41.0857 40.7706C40.8226 40.6164 40.5475 40.4836 40.2632 40.3734C39.9799 40.2639 39.6882 40.1778 39.391 40.1159C39.0845 40.0517 38.7735 40.0107 38.4608 39.9934C38.1549 39.9759 37.8481 39.9785 37.5425 40.0011C37.2176 40.0245 36.8942 40.066 36.5739 40.1254C36.2408 40.1869 35.898 40.2671 35.5456 40.3657C35.1932 40.4644 34.8289 40.5816 34.4529 40.7173C34.091 40.8483 33.7149 40.9971 33.3246 41.1637C32.9344 41.3302 32.5324 41.5125 32.1189 41.7106L32.1236 41.7136ZM54.5596 41.4389V44.05C54.5004 44.0583 54.4354 44.0678 54.3745 44.0778C54.2432 44.0999 54.1139 44.1262 53.9866 44.1566C53.8592 44.1869 53.737 44.2213 53.6199 44.2596C53.4763 44.3056 53.3358 44.3612 53.1995 44.4259C53.0729 44.4859 52.9512 44.5555 52.8353 44.6343C52.7268 44.7079 52.6253 44.7914 52.5319 44.8835C52.4435 44.9708 52.3642 45.067 52.2954 45.1706L52.2321 45.2665H52.2362C52.1973 45.3361 52.1631 45.4083 52.1339 45.4825C52.0909 45.5953 52.0592 45.7121 52.0393 45.8312C52.0188 45.955 52.0093 46.0804 52.011 46.2059C52.0131 46.3412 52.0254 46.4761 52.0476 46.6096C52.0796 46.8067 52.1186 46.9908 52.1659 47.1619C52.2086 47.3279 52.2608 47.4913 52.322 47.6514C52.3786 47.7987 52.4452 47.9418 52.5213 48.08C52.5915 48.2065 52.6718 48.327 52.7613 48.4405C52.8376 48.5358 52.9221 48.6241 53.0138 48.7045C53.1025 48.7815 53.1986 48.8495 53.3006 48.9076C53.4018 48.965 53.5086 49.0118 53.6194 49.0473C53.731 49.0828 53.8459 49.107 53.9623 49.1195L54.0327 49.1272C54.0918 49.1313 54.1509 49.1337 54.2071 49.1331C54.2919 49.1328 54.3766 49.1281 54.4608 49.1189L54.5607 49.1059V51.7116L54.491 51.7193C54.3338 51.7352 54.1759 51.7431 54.0179 51.743C53.8638 51.7425 53.7099 51.734 53.5567 51.7175L53.5123 51.7128C53.2742 51.6847 53.039 51.6362 52.8092 51.5678C52.3351 51.4261 51.8932 51.1931 51.5083 50.8817C51.3114 50.7214 51.1299 50.5431 50.9661 50.349C50.8012 50.1546 50.6525 49.9472 50.5214 49.7286C50.3819 49.4961 50.2596 49.2538 50.1554 49.0035C50.0428 48.7335 49.9472 48.4567 49.8692 48.1747C49.7849 47.8684 49.7172 47.5578 49.6664 47.2442C49.6136 46.9276 49.5849 46.6074 49.5806 46.2864C49.5766 45.9875 49.5988 45.6888 49.6469 45.3937C49.6928 45.1143 49.7654 44.84 49.8639 44.5745C49.9601 44.3143 50.0826 44.0646 50.2293 43.8292C50.3769 43.592 50.5474 43.37 50.7384 43.1662C50.937 42.956 51.1548 42.7647 51.3889 42.595C51.6357 42.4154 51.8972 42.257 52.1706 42.1214C52.4622 41.9761 52.7642 41.8529 53.0742 41.7527C53.2385 41.6994 53.4071 41.6514 53.5774 41.61C53.7477 41.5686 53.9274 41.5313 54.1096 41.4999C54.2533 41.478 54.407 41.4561 54.5596 41.4389Z" fill="black"/>
</g>
<defs>
<clipPath id="clip0_36_74">
<rect width="96" height="98" fill="white"/>
</clipPath>
</defs>
</svg>
