<svg width="111" height="52" viewBox="0 0 111 52" fill="none" xmlns="http://www.w3.org/2000/svg">
<path d="M4.97015 27.2381L8.13862 12.3878H14.4521C15.4222 12.3878 16.2671 12.4892 16.9869 12.6919C17.7223 12.8789 18.3247 13.1986 18.7941 13.6507C19.2791 14.1028 19.639 14.6953 19.8737 15.428C20.124 16.1608 20.2492 17.0573 20.2492 18.1175C20.2492 19.2556 20.1006 20.3703 19.8033 21.4617C19.5216 22.5531 19.0444 23.5275 18.3716 24.385C17.6988 25.2425 16.8148 25.9363 15.7195 26.4663C14.6399 26.9808 13.3021 27.2381 11.7061 27.2381H4.97015ZM11.401 25.6011C11.9173 25.6011 12.3711 25.3906 12.7622 24.9696C13.1691 24.5331 13.5133 23.9874 13.7949 23.3326C14.0922 22.6622 14.3347 21.9294 14.5225 21.1343C14.7259 20.3236 14.8824 19.544 14.9919 18.7957C15.1171 18.0473 15.2031 17.3769 15.2501 16.7844C15.3127 16.192 15.344 15.771 15.344 15.5216C15.344 15.0383 15.2423 14.6641 15.0388 14.399C14.8511 14.1184 14.5147 13.9781 14.0296 13.9781H12.9031L10.3918 25.6011H11.401Z" fill="white"/>
<path d="M23.6784 12.3878H33.5594L33.1838 14.1652H28.3959L27.4102 18.6787H31.4236L31.0481 20.4327H27.0347L25.955 25.4374H30.7429L30.3909 27.2381H20.51L23.6784 12.3878Z" fill="white"/>
<path d="M40.3707 20.4561H46.4494L45.0882 27.2381H42.3187L41.8727 25.7414H41.7789C41.3721 26.2091 40.887 26.6067 40.3237 26.9341C39.7761 27.2615 39.0563 27.4252 38.1645 27.4252C37.476 27.4252 36.811 27.316 36.1695 27.0978C35.5436 26.8639 34.9803 26.5053 34.4796 26.022C33.9946 25.5231 33.6034 24.8761 33.3061 24.081C33.0089 23.2858 32.8602 22.327 32.8602 21.2044C32.8602 19.9884 33.048 18.8346 33.4235 17.7433C33.799 16.6519 34.3623 15.6931 35.1133 14.8668C35.8644 14.0249 36.8032 13.3623 37.9298 12.8789C39.0563 12.3956 40.3707 12.154 41.8727 12.154C43.0306 12.154 44.0398 12.2865 44.9004 12.5515C45.761 12.8166 46.5746 13.1128 47.3413 13.4402L46.4494 17.9771H42.483C42.4986 17.8056 42.5221 17.603 42.5534 17.3691C42.5847 17.1352 42.6081 16.8936 42.6238 16.6441C42.6394 16.3791 42.6551 16.1218 42.6707 15.8724C42.6864 15.6229 42.6942 15.4047 42.6942 15.2176C42.6942 15.0928 42.6864 14.9525 42.6707 14.7966C42.6551 14.6251 42.616 14.4614 42.5534 14.3055C42.4908 14.1496 42.3969 14.0249 42.2717 13.9313C42.1466 13.8222 41.9666 13.7676 41.7319 13.7676C41.3251 13.7676 40.9496 13.9391 40.6054 14.2821C40.2768 14.6095 39.9795 15.0539 39.7135 15.6151C39.4475 16.1608 39.2128 16.7844 39.0094 17.486C38.8216 18.1876 38.6573 18.9048 38.5165 19.6376C38.3913 20.3547 38.2896 21.0641 38.2114 21.7657C38.1488 22.4517 38.1175 23.052 38.1175 23.5665C38.1175 23.7224 38.1253 23.9172 38.141 24.1511C38.1566 24.385 38.2036 24.6188 38.2818 24.8527C38.3757 25.071 38.5009 25.2659 38.6573 25.4374C38.8294 25.5933 39.072 25.6712 39.3849 25.6712C39.9012 25.6712 40.4019 25.3906 40.887 24.8293C41.372 24.268 41.7397 23.3326 41.9901 22.023H40.0186L40.3707 20.4561Z" fill="white"/>
<path d="M50.2657 12.3878H60.1466L59.7711 14.1652H54.9832L53.9975 18.6787H58.0109L57.6353 20.4327H53.6219L52.5423 25.4374H57.3302L56.9782 27.2381H47.0972L50.2657 12.3878Z" fill="white"/>
<path d="M71.4107 27.2381H65.9186L63.3135 16.5038L61.0134 27.2381H58.9011L62.0695 12.3878H67.6789L70.1433 23.2624L72.4668 12.3878H74.6261L71.4107 27.2381Z" fill="white"/>
<path d="M4.54769 30.6855H11.8577L7.88266 49.1804H14.721L14.1484 52H0L4.54769 30.6855Z" fill="#23CE6B"/>
<path d="M23.5274 52H16.2511L20.7988 30.6855H28.1088L23.5274 52Z" fill="#23CE6B"/>
<path d="M27.1377 48.9455L38.2206 33.2365H29.7316L30.2369 30.6855H46.878L46.5748 33.5386L35.593 49.449H44.4526L43.981 52H26.5313L27.1377 48.9455Z" fill="#23CE6B"/>
<path d="M64.5208 52H56.6382L56.1666 46.663H49.9345L47.5428 52H44.2752L54.2127 30.6855H62.1965L64.5208 52ZM51.0462 44.2127H55.9308L55.156 35.0827L51.0462 44.2127Z" fill="#23CE6B"/>
<path d="M87.1098 35.754C87.1098 37.0743 86.7392 38.2938 85.9981 39.4127C85.257 40.5316 84.0331 41.3819 82.3263 41.9637L86.2339 52H78.7218L75.7574 42.7022H75.3868L73.3993 52H66.123L70.6707 30.6855H79.5303C80.5634 30.6855 81.5403 30.7526 82.461 30.8869C83.3818 30.9988 84.1791 31.2449 84.8528 31.6254C85.549 31.9834 86.0992 32.4981 86.5034 33.1694C86.9077 33.8183 87.1098 34.6799 87.1098 35.754ZM77.4081 40.5539C77.992 40.5539 78.486 40.3637 78.8903 39.9833C79.317 39.5805 79.6538 39.0994 79.9009 38.54C80.1703 37.9805 80.3612 37.3875 80.4735 36.761C80.5858 36.112 80.642 35.5526 80.642 35.0827C80.642 34.5009 80.5409 34.0085 80.3388 33.6058C80.1367 33.1806 79.6987 32.968 79.025 32.968H77.5091L75.8248 40.5539H77.4081Z" fill="#23CE6B"/>
<path d="M87.4403 52L91.988 30.6855H101.05C102.442 30.6855 103.655 30.831 104.688 31.1219C105.743 31.3904 106.608 31.8491 107.282 32.4981C107.978 33.147 108.494 33.9974 108.831 35.0491C109.191 36.1008 109.37 37.3875 109.37 38.9092C109.37 40.5428 109.157 42.1427 108.73 43.7092C108.326 45.2756 107.641 46.6742 106.675 47.9049C105.71 49.1357 104.441 50.1315 102.869 50.8923C101.319 51.6308 99.3991 52 97.1084 52H87.4403ZM96.6705 49.6504C97.4116 49.6504 98.0628 49.3483 98.6243 48.7441C99.2082 48.1175 99.7022 47.3343 100.106 46.3945C100.533 45.4322 100.881 44.3805 101.151 43.2392C101.443 42.0756 101.667 40.9567 101.824 39.8826C102.004 38.8085 102.128 37.8463 102.195 36.9959C102.285 36.1456 102.33 35.5414 102.33 35.1834C102.33 34.4897 102.184 33.9526 101.892 33.5722C101.622 33.1694 101.14 32.968 100.443 32.968H98.8264L95.2219 49.6504H96.6705Z" fill="#23CE6B"/>
<path d="M110.977 22.3643C110.33 26.9095 104.415 27.5791 103.187 24.0532C102.846 23.0728 102.069 22.333 101.08 21.9805L100.546 21.7907C99.3546 21.3659 97.9659 21.5689 96.8237 22.3282C96.8033 22.3421 96.7822 22.356 96.7619 22.3692C95.6091 23.1166 94.8322 24.3258 94.6938 25.6239L94.5814 26.7427C94.5531 27.0239 94.3156 27.2381 94.0319 27.2381H91.9448C91.6102 27.2381 91.3525 26.944 91.3976 26.6136L91.5328 25.6239C91.6712 24.3258 91.1528 23.1166 90.1609 22.3692C90.1426 22.356 90.1251 22.3421 90.1068 22.3282C89.1276 21.5689 87.7824 21.3659 86.4997 21.7907L85.9251 21.9805C84.8609 22.333 83.9266 23.0728 83.3752 24.0525C81.3943 27.5784 75.6208 26.9116 75.946 22.3643C76.2853 19.2508 79.8124 17.5654 82.1557 18.8405C83.0422 19.3238 84.1416 19.3766 85.1777 19.0338L86.9837 18.4359C87.663 18.2113 88.1877 17.6377 88.3535 16.9577C88.3563 16.9479 88.3584 16.9382 88.3612 16.9285C88.5312 16.2471 88.3198 15.5671 87.7922 15.1721L86.4175 14.1431C85.5956 13.5278 84.5195 13.3018 83.4335 13.4979C81.0669 13.9262 78.8085 12.1615 79.1085 9.60209C79.3424 7.41746 81.3212 5.64583 83.5283 5.64653C85.5416 5.62219 87.0273 7.15116 87.1242 9.00483C87.179 10.0485 87.6918 10.9718 88.5017 11.5781L89.8792 12.6086C90.4032 13.0007 91.1387 13.0403 91.7822 12.717C91.8271 12.6948 91.8721 12.6732 91.917 12.6517C92.5647 12.3444 93.0199 11.7214 93.0922 11.0393L93.2447 9.6153C93.3599 8.53898 93.0094 7.52245 92.3104 6.77222C90.2009 4.50693 92.0329 0.0563193 95.8536 0C99.6623 0.055624 100.543 4.50624 97.949 6.77222C97.0892 7.52245 96.5209 8.53967 96.4057 9.616L96.2533 11.0393C96.1809 11.7214 96.502 12.3444 97.0843 12.6517C97.125 12.6732 97.1651 12.6948 97.2051 12.717C97.779 13.0403 98.5229 13.0007 99.1312 12.6086L100.729 11.5781C101.668 10.9718 102.379 10.0492 102.658 9.00483C103.151 7.15116 104.964 5.62219 106.971 5.64583C109.178 5.64583 110.779 7.41746 110.545 9.60209C110.298 12.1615 107.662 13.9255 105.387 13.4979C104.343 13.3018 103.218 13.5278 102.265 14.1431L100.67 15.1721C100.058 15.5671 99.7009 16.2471 99.7255 16.9285C99.7255 16.9382 99.7262 16.9479 99.7262 16.9577C99.7473 17.6377 100.149 18.2113 100.78 18.4359L102.451 19.0311C103.441 19.3843 104.571 19.289 105.597 18.8134C106.156 18.5541 106.77 18.4081 107.403 18.4081C109.611 18.4081 111.211 20.1797 110.977 22.3643Z" fill="white"/>
</svg>
