<svg width="36" height="19" viewBox="0 0 36 19" fill="none" xmlns="http://www.w3.org/2000/svg">
<path fill-rule="evenodd" clip-rule="evenodd" d="M25.5596 18.7608C25.6967 18.746 25.8398 18.7276 25.9877 18.7051C26.1793 18.6761 26.375 18.6406 26.5731 18.5986C26.7605 18.5595 26.9551 18.5127 27.1549 18.4583C27.3465 18.4062 27.5393 18.3482 27.7303 18.2848C27.9213 18.2215 28.1034 18.1546 28.2932 18.0794C28.4769 18.006 28.6608 17.9271 28.8449 17.8427C29.029 17.7582 29.2086 17.669 29.3836 17.5751C29.5583 17.482 29.7323 17.3833 29.9058 17.2791C30.0792 17.1749 30.2477 17.0666 30.4113 16.9541C30.5745 16.8421 30.7378 16.7237 30.901 16.599C31.0642 16.4743 31.2219 16.347 31.374 16.2172C31.5262 16.0869 31.6772 15.9504 31.827 15.8075C31.9768 15.6647 32.1209 15.5196 32.2592 15.3724C32.4011 15.2229 32.5391 15.0692 32.6731 14.9113C32.8072 14.7535 32.9381 14.5911 33.0658 14.4241C33.1929 14.2578 33.3177 14.0873 33.4383 13.9121C33.7349 13.4855 34.0041 13.0404 34.2443 12.5796C34.4633 12.1604 34.6499 11.725 34.8025 11.2773C34.9429 10.8658 35.046 10.4424 35.1106 10.0123C35.1711 9.60788 35.1909 9.19837 35.1697 8.78996C35.148 8.3854 35.0822 7.98444 34.9734 7.59422C34.8641 7.20398 34.7126 6.82685 34.5216 6.46951C34.3229 6.09993 34.0867 5.75181 33.8168 5.43064C33.5306 5.09062 33.2139 4.77755 32.8707 4.49535C32.7295 4.37696 32.5843 4.26568 32.4348 4.1615C32.2835 4.05317 32.1256 3.94899 31.9618 3.84954C31.798 3.75009 31.6289 3.65301 31.4556 3.56185C31.2824 3.47069 31.1008 3.38426 30.9199 3.30021C30.7385 3.21852 30.5535 3.14176 30.3646 3.06994C30.1758 2.99811 29.9846 2.93162 29.791 2.87045C29.5965 2.81125 29.4002 2.75206 29.2027 2.70352C29.0052 2.65498 28.8035 2.60881 28.6031 2.56974C28.4026 2.53067 28.2069 2.4993 28.0118 2.47266C27.8166 2.44602 27.6168 2.42471 27.4169 2.40932C27.217 2.39393 27.0183 2.38386 26.8256 2.38031C26.6328 2.37676 26.4359 2.38031 26.2431 2.38623C26.0504 2.39215 25.8552 2.40814 25.6648 2.42767L25.5619 2.43892V5.05001C25.6347 5.03995 25.7086 5.03166 25.7831 5.02456C25.9214 5.01075 26.062 5.00147 26.2047 4.99674C26.2881 4.99378 26.3738 4.99259 26.4607 4.99259C26.5476 4.99259 26.6381 4.9926 26.7256 4.99733C26.8132 5.00207 26.903 5.00503 26.9911 5.01095C27.0792 5.01687 27.1685 5.02456 27.259 5.03344L27.3578 5.0435L27.5062 5.05889L27.4222 5.18143L27.366 5.26371L27.3448 5.29508L27.3388 5.30337C27.3146 5.34125 27.2898 5.38091 27.2667 5.42176C27.2425 5.46556 27.2194 5.50937 27.1987 5.55199C27.178 5.59461 27.1591 5.639 27.1396 5.6834C27.123 5.72543 27.1082 5.76864 27.0952 5.81185C27.0649 5.90809 27.0451 6.00733 27.0361 6.10782C27.0282 6.19909 27.032 6.291 27.0473 6.38131C27.0616 6.46334 27.0871 6.54302 27.123 6.61809V6.61809C27.1591 6.69287 27.2046 6.76269 27.2584 6.82586L27.3678 6.91999C27.437 6.96557 27.5015 7.01055 27.5594 7.05613C27.6185 7.10149 27.6751 7.1499 27.7291 7.20116C27.7801 7.24913 27.8279 7.30034 27.8722 7.35448C27.9131 7.40456 27.9503 7.45758 27.9834 7.51312C28.0085 7.55556 28.0302 7.59989 28.0484 7.64572C28.0844 7.73402 28.1044 7.82802 28.1076 7.92334C28.1086 7.97049 28.1054 8.01763 28.0981 8.06422C28.0892 8.12138 28.0759 8.17778 28.0585 8.23293C28.0402 8.29172 28.018 8.34927 27.9923 8.40519C27.9652 8.4639 27.9352 8.5212 27.9024 8.57686C27.8681 8.63605 27.8296 8.69524 27.7888 8.7497C27.748 8.80416 27.6919 8.87579 27.6363 8.93913C27.5807 9.00247 27.5222 9.06403 27.4589 9.12382C27.3956 9.1836 27.3312 9.24221 27.2614 9.3014C27.1916 9.3606 27.1201 9.41505 27.0461 9.46833C26.9622 9.52752 26.877 9.58672 26.7907 9.63763C26.7044 9.69031 26.6133 9.73945 26.5264 9.78444C26.4377 9.82942 26.3472 9.87046 26.2549 9.90756C26.1657 9.94367 26.074 9.97623 25.9812 10.004C25.8948 10.0301 25.8067 10.0526 25.7174 10.0715C25.6642 10.0822 25.6116 10.0917 25.5584 10.0999V12.7116C25.695 12.6962 25.8321 12.6743 25.9723 12.6471C26.1355 12.6151 26.2969 12.5749 26.4548 12.5287C26.6127 12.4825 26.7724 12.4263 26.9279 12.3647C27.0834 12.3032 27.2419 12.2327 27.395 12.157C27.5482 12.0812 27.7001 11.9971 27.8486 11.9084C27.997 11.8196 28.1442 11.7219 28.282 11.6224C28.4198 11.523 28.5682 11.4064 28.7048 11.2892C28.8414 11.172 28.9703 11.0524 29.0945 10.9233C29.2186 10.7943 29.3351 10.6658 29.4451 10.5309C29.5551 10.3959 29.658 10.2574 29.7532 10.1165C29.8484 9.97564 29.9377 9.82705 30.0175 9.67847C30.0958 9.53234 30.1662 9.38217 30.2286 9.22859C30.2894 9.08019 30.3415 8.92839 30.3847 8.77397C30.4272 8.62439 30.4605 8.47238 30.4847 8.31877C30.5134 8.13781 30.529 7.95501 30.5314 7.7718C30.5339 7.59481 30.5229 7.41789 30.4983 7.2426C30.4737 7.07085 30.4359 6.90125 30.3853 6.7353C30.3368 6.57789 30.2765 6.42434 30.205 6.27594L30.1932 6.25167L30.1772 6.21911L30.1719 6.20905L30.1488 6.16406L30.1186 6.10487L30.1654 6.0587L30.2464 5.97997L30.2931 5.93439L30.3522 5.96576C30.4385 6.01233 30.5245 6.06186 30.61 6.11434C30.6952 6.16584 30.7786 6.21911 30.8584 6.27298C30.9382 6.32685 31.018 6.38249 31.0949 6.43873C31.1718 6.49497 31.2463 6.55712 31.3178 6.61632C31.5222 6.78464 31.711 6.97107 31.882 7.17334C32.0429 7.36447 32.184 7.57154 32.303 7.79134C32.4175 8.00444 32.5081 8.22957 32.5732 8.46261C32.6376 8.69436 32.6757 8.93264 32.6867 9.17295C32.698 9.43037 32.6826 9.68826 32.6406 9.94248C32.5949 10.2171 32.5249 10.4871 32.4313 10.7493C32.3292 11.0354 32.2063 11.3136 32.0635 11.5816C31.906 11.8777 31.7311 12.1641 31.5396 12.4393C31.445 12.5767 31.3498 12.7077 31.254 12.8324C31.1582 12.9571 31.0579 13.0814 30.953 13.2053C30.8495 13.3278 30.7443 13.4421 30.6378 13.5605C30.5314 13.6789 30.4184 13.7872 30.3067 13.8932C30.1949 13.9991 30.0784 14.1057 29.9625 14.2045C29.8466 14.3034 29.726 14.4034 29.6077 14.4946C29.4895 14.5857 29.3612 14.6781 29.2364 14.7633C29.1116 14.8486 28.9786 14.9344 28.8514 15.0114C28.7147 15.0938 28.5792 15.1706 28.4452 15.2416C28.3086 15.315 28.1696 15.3837 28.0313 15.4476C27.8929 15.5116 27.7445 15.5755 27.6049 15.6311C27.4654 15.6868 27.3164 15.74 27.1691 15.7892C27.0219 15.8383 26.867 15.8851 26.7239 15.9236C26.5731 15.9644 26.4223 16.0005 26.2733 16.0319C26.1176 16.065 25.967 16.0925 25.8215 16.1142C25.7364 16.1272 25.6512 16.139 25.5672 16.1485L25.5596 18.7608ZM3.12365 2.71358C2.71445 2.9109 2.28515 3.12578 1.83575 3.35822C1.38634 3.59066 0.927673 3.8371 0.459741 4.09756L0.130371 4.2793L0.253962 4.63447L0.795607 6.17354L0.968283 6.66604L1.42656 6.41327C1.8531 6.17649 2.26997 5.95234 2.6772 5.74082C3.08442 5.52929 3.47272 5.33336 3.8421 5.15302C4.21345 4.97306 4.57494 4.80652 4.92658 4.65341C5.27822 4.50029 5.61489 4.36414 5.93657 4.24496C6.24721 4.12972 6.54819 4.0289 6.83951 3.94247C7.13084 3.85605 7.41013 3.78619 7.67741 3.73292C7.93426 3.68064 8.19387 3.64309 8.45499 3.62045C8.69411 3.59968 8.9344 3.59592 9.17405 3.6092C9.37801 3.62057 9.5807 3.64849 9.78015 3.69267C9.97638 3.7356 10.1686 3.79501 10.3549 3.87026V3.87026C10.5443 3.948 10.727 4.04104 10.9013 4.14847C11.0835 4.26195 11.2572 4.38857 11.4211 4.52732C11.6081 4.68583 11.7845 4.85649 11.9491 5.03817C12.1308 5.23784 12.3019 5.44689 12.4618 5.66445C12.6297 5.89176 12.7965 6.13979 12.962 6.40854C13.1276 6.67729 13.2924 6.96556 13.4564 7.27338L13.7355 7.79666L13.7917 7.90262L13.8011 7.92038L13.8094 7.93636L13.8177 7.95175C14.1234 8.53009 14.4463 9.14039 14.7809 9.75247C15.1156 10.3645 15.4763 11.0044 15.8542 11.6349C16.2321 12.2653 16.6265 12.8857 17.0457 13.49C17.4569 14.0874 17.8978 14.6636 18.3667 15.2168C18.8329 15.7684 19.3397 16.2842 19.8829 16.76C20.3966 17.211 20.9568 17.6061 21.5539 17.9386C22.1291 18.2581 22.7461 18.4956 23.387 18.6442C24.0481 18.7938 24.7287 18.8376 25.4034 18.7738C25.4537 18.7697 25.5051 18.7643 25.5572 18.7584V16.1473C25.4921 16.155 25.4277 16.1621 25.3638 16.168C24.3213 16.2633 23.3433 15.9608 22.4285 15.3878C21.5137 14.8148 20.6735 13.9825 19.8858 13.0064C19.0982 12.0303 18.3892 10.9346 17.7299 9.80989C17.0705 8.68518 16.4721 7.56047 15.9323 6.53699L15.5698 5.85151L15.5662 5.84322C15.3573 5.45135 15.1452 5.08415 14.93 4.74161C14.7147 4.39906 14.4948 4.08059 14.2701 3.7862C14.0563 3.50438 13.8271 3.23463 13.5835 2.97818C13.359 2.74093 13.1192 2.51867 12.8657 2.31283C12.6197 2.11272 12.3589 1.93147 12.0857 1.77061C11.8226 1.61644 11.5475 1.48361 11.2632 1.3734C10.9799 1.26391 10.6882 1.17779 10.391 1.11591C10.0845 1.05167 9.77352 1.01071 9.46083 0.993377C9.15488 0.97588 8.84812 0.97845 8.54251 1.00107C8.21759 1.02452 7.89424 1.06602 7.57393 1.12538C7.24082 1.18694 6.89804 1.26705 6.54561 1.36571C6.19319 1.46437 5.82893 1.58158 5.45285 1.71733C5.09097 1.84835 4.71489 1.99713 4.32462 2.16366C3.93435 2.3302 3.53244 2.51252 3.11891 2.71063L3.12365 2.71358ZM25.5596 2.43892V5.05001C25.5004 5.0583 25.4354 5.06777 25.3745 5.07784C25.2432 5.09994 25.1139 5.12618 24.9866 5.15656C24.8592 5.18695 24.737 5.22128 24.6199 5.25956C24.4763 5.30561 24.3358 5.36118 24.1995 5.4259C24.0729 5.48588 23.9512 5.55554 23.8353 5.63426C23.7268 5.70795 23.6253 5.79137 23.5319 5.88348C23.4435 5.97083 23.3642 6.06703 23.2954 6.17057L23.2321 6.26647H23.2362C23.1973 6.33609 23.1631 6.40828 23.134 6.48253C23.0909 6.5953 23.0592 6.7121 23.0393 6.83119C23.0188 6.955 23.0093 7.0804 23.011 7.2059C23.0131 7.34119 23.0254 7.47614 23.0476 7.60961C23.0796 7.80673 23.1186 7.99082 23.1659 8.1619C23.2086 8.3279 23.2608 8.49134 23.322 8.65144C23.3786 8.79865 23.4452 8.94184 23.5213 9.08001C23.5915 9.20645 23.6718 9.32701 23.7613 9.44051C23.8376 9.53579 23.9221 9.62413 24.0138 9.70452C24.1025 9.78153 24.1986 9.84954 24.3006 9.90756C24.4018 9.96499 24.5086 10.0118 24.6194 10.0473C24.731 10.0828 24.8459 10.107 24.9623 10.1195L25.0327 10.1272C25.0918 10.1313 25.151 10.1337 25.2071 10.1331C25.2919 10.1328 25.3766 10.1281 25.4608 10.1189V10.1189L25.5607 10.1059V12.7116L25.491 12.7193C25.3338 12.7352 25.1759 12.7431 25.0179 12.743C24.8638 12.7425 24.7099 12.734 24.5567 12.7175L24.5123 12.7128C24.2742 12.6847 24.039 12.6362 23.8092 12.5678C23.3351 12.4261 22.8932 12.1931 22.5083 11.8817C22.3114 11.7214 22.1299 11.5431 21.9661 11.349C21.8012 11.1546 21.6525 10.9472 21.5214 10.7286C21.3819 10.4961 21.2596 10.2538 21.1554 10.0035C21.0428 9.73348 20.9472 9.45669 20.8692 9.17472C20.7849 8.86843 20.7172 8.55779 20.6664 8.24418C20.6136 7.92755 20.5849 7.60737 20.5806 7.2864C20.5766 6.98748 20.5988 6.68878 20.6469 6.39374C20.6928 6.11432 20.7654 5.83997 20.8639 5.57448C20.9601 5.31429 21.0826 5.06458 21.2293 4.82921C21.3769 4.59204 21.5474 4.36998 21.7384 4.16623C21.937 3.95599 22.1548 3.76475 22.3889 3.595C22.6357 3.41544 22.8972 3.25703 23.1706 3.12144C23.4622 2.97614 23.7642 2.85287 24.0742 2.75265C24.2385 2.69938 24.4071 2.65143 24.5774 2.60999C24.7477 2.56855 24.9274 2.53126 25.1096 2.49989C25.2533 2.47799 25.407 2.45608 25.5596 2.43892V2.43892Z" fill="black"/>
</svg>
