<svg width="92" height="86" viewBox="0 0 92 86" fill="none" xmlns="http://www.w3.org/2000/svg">
<path fill-rule="evenodd" clip-rule="evenodd" d="M91.3071 48.8167C91.0939 49.75 90.8528 50.6774 90.584 51.5988C90.3151 52.5203 90.0194 53.428 89.697 54.3218L89.124 55.2224V35.1473L89.7029 35.0638C89.7947 35.3764 89.8876 35.7043 89.9814 36.0477C90.0772 36.3993 90.1641 36.7296 90.241 37.035C90.4665 37.9324 90.6691 38.8419 90.8489 39.7634C91.0255 40.671 91.1792 41.5923 91.3101 42.5272L91.3137 42.5674V48.7486L91.3054 48.8143L91.3071 48.8167ZM85.7487 62.6784C85.4905 63.1125 85.2289 63.535 84.964 63.9458C84.6991 64.3566 84.425 64.7696 84.1415 65.1847L83.6022 66.0184V22.8122L84.1486 22.6559L84.3355 22.959L84.5194 23.2615C84.7279 23.6088 84.939 23.9699 85.1527 24.3448C85.3612 24.7118 85.5623 25.0756 85.7558 25.4363L85.7919 25.5766V62.5286L85.7487 62.6802V62.6784ZM80.1903 70.1903C79.9206 70.4886 79.6569 70.7734 79.3991 71.0445C79.1318 71.3258 78.8598 71.6052 78.5831 71.8827L78.0781 72.6743V15.5377L78.5914 15.3376L78.7995 15.5661L79.0065 15.797C79.2178 16.0338 79.4196 16.2629 79.612 16.4842C79.8044 16.7056 79.9997 16.9365 80.198 17.1768L80.2678 17.3651V69.9926L80.1903 70.1903ZM74.6319 75.4214C74.3705 75.6301 74.1048 75.8375 73.8348 76.0435C73.5852 76.2341 73.3138 76.4366 73.0235 76.6485L72.5546 76.9906V9.79756L73.0329 10.1746L73.2695 10.3641C73.3227 10.4067 73.4031 10.4712 73.506 10.5553C73.7157 10.7257 73.9081 10.8836 74.0831 11.0288C74.2581 11.174 74.4436 11.3319 74.6395 11.5024L74.7424 11.5912V75.332L74.6301 75.4214H74.6319ZM69.0734 79.2359C68.8328 79.3762 68.5649 79.5283 68.274 79.6905C67.983 79.8527 67.7099 80.0013 67.4656 80.1309L67.031 80.3618V6.14758L67.4733 6.40331L67.7436 6.56017L68.0144 6.71941C68.193 6.82596 68.3761 6.93646 68.5637 7.0509C68.737 7.15686 68.9102 7.2646 69.0817 7.37293L69.2207 7.46053V79.1501L69.0734 79.2359ZM63.515 81.9956C63.2359 82.114 62.9674 82.2211 62.715 82.3212C62.4743 82.4165 62.2058 82.5195 61.9066 82.6307L61.5087 82.7787V3.51636L61.9149 3.6821L62.2147 3.80642C62.2626 3.82595 62.3608 3.86561 62.5104 3.93191C62.6712 3.99979 62.8401 4.07299 63.0171 4.15152C63.2052 4.2338 63.3719 4.30898 63.5203 4.37528L63.6977 4.4546V81.9198L63.515 81.9956ZM57.9566 83.8952C57.6913 83.9674 57.4242 84.0374 57.1553 84.1053C56.896 84.1712 56.6269 84.2363 56.3482 84.3006L55.9869 84.3847V1.74109L56.3559 1.83699C56.512 1.87724 56.6202 1.90625 56.69 1.9246C56.7598 1.94295 56.8762 1.97551 57.0223 2.01635C57.1684 2.0572 57.3233 2.10041 57.4912 2.14954C57.6852 2.20519 57.846 2.25254 57.9643 2.28865L58.176 2.35258V83.836L57.9566 83.8952ZM52.3982 85.0335C52.1084 85.0743 51.8376 85.1104 51.5969 85.1406C51.3563 85.1708 51.0825 85.1998 50.7898 85.2336L50.4645 85.2673V0.728262L50.7969 0.770291L51.1641 0.818239L51.5295 0.869146C51.6389 0.885129 51.7832 0.906439 51.9665 0.934852C52.0735 0.951427 52.2213 0.975105 52.4053 1.00529L52.6536 1.04614V84.9974L52.3982 85.0335ZM46.8397 85.4721H46.7723C46.4808 85.4768 46.1881 85.4828 45.9894 85.4828C45.8528 85.4828 45.6204 85.4786 45.3886 85.4745H45.2325L44.941 85.4697V0.421631H45.2473C45.3869 0.421631 45.582 0.421631 45.8298 0.425775C46.0142 0.425775 46.1798 0.431104 46.3282 0.434656L46.5849 0.442348L46.8451 0.451228L47.1307 0.461883V85.4662L46.8397 85.4721ZM41.2813 85.243C40.9892 85.2128 40.7219 85.1838 40.4747 85.1525C40.2276 85.1211 39.9632 85.0868 39.6729 85.0465L39.418 85.011V0.805215L39.6776 0.772658C39.8793 0.747204 40.0194 0.729445 40.0998 0.720566C40.2181 0.706951 40.36 0.690969 40.5285 0.67321L40.9023 0.635325L41.286 0.599216L41.6071 0.570804V85.2791L41.2813 85.246V85.243ZM35.6933 84.3148C35.4146 84.2505 35.1454 84.1858 34.8856 84.1207C34.6175 84.0536 34.3506 83.9843 34.0849 83.9129L33.8655 83.8537V1.90624L34.0873 1.84705C34.257 1.80324 34.4101 1.76418 34.5456 1.72866C34.7159 1.68604 34.8708 1.64875 35.0103 1.6156L35.3486 1.53805C35.5149 1.49859 35.631 1.47254 35.6969 1.45991L36.0517 1.38178V84.3977L35.6904 84.3143L35.6933 84.3148ZM30.1349 82.6574C29.8668 82.5579 29.5974 82.4549 29.3265 82.3484C29.0746 82.2489 28.8068 82.1406 28.5271 82.0252L28.3432 81.9488V3.77386L28.5283 3.69868C28.6761 3.63948 28.8387 3.57377 29.0143 3.50451C29.1728 3.44532 29.3413 3.37784 29.5193 3.31036L29.8315 3.19197L30.1361 3.0795L30.5322 2.93565V82.7994L30.1349 82.6526V82.6574ZM24.5765 80.1676C24.3151 80.0291 24.0453 79.8827 23.7669 79.7284C23.4886 79.5741 23.2269 79.4218 22.9817 79.2714L22.8338 79.1856V6.51933L22.9817 6.4335C23.1715 6.32399 23.3495 6.22158 23.5139 6.12923C23.6625 6.04597 23.8381 5.94908 24.0407 5.83858L24.3127 5.69237C24.4018 5.64423 24.4947 5.5951 24.5912 5.54498L25.0229 5.31826V80.3944L24.5901 80.1647L24.5765 80.1676ZM19.018 76.6994C18.7515 76.5052 18.4811 76.3036 18.2067 76.0944C17.9324 75.8852 17.6712 75.6773 17.4232 75.4705L17.3109 75.3817V10.3084L17.4238 10.2184C17.6308 10.0547 17.8174 9.90884 17.9838 9.78098C18.162 9.64365 18.3496 9.50198 18.5467 9.35597C18.6455 9.28197 18.7241 9.22278 18.7898 9.17838L19.031 9.00079L19.5 8.66042V77.0374L19.031 76.6964L19.018 76.6994ZM13.4596 71.9496C13.1837 71.6733 12.912 71.3955 12.6448 71.1161C12.3775 70.8367 12.113 70.5526 11.8512 70.2637L11.7737 70.0648V15.5928L11.8524 15.3933C12.0396 15.1885 12.2342 14.9799 12.436 14.7676C12.63 14.5636 12.8271 14.3591 13.0273 14.1543C13.0989 14.0815 13.171 14.0093 13.2432 13.9365C13.3153 13.8637 13.3863 13.7932 13.4578 13.7222L13.961 13.2232V72.4492L13.4578 71.9466L13.4596 71.9496ZM7.90117 65.2818C7.61616 64.8682 7.34119 64.4556 7.07628 64.044C6.81137 63.6324 6.5502 63.2125 6.29278 62.7844L6.2502 62.6328V22.8939L6.29514 22.7388C6.49225 22.4203 6.69192 22.1062 6.89415 21.7964C7.10348 21.4744 7.31301 21.1603 7.52273 20.854L7.71195 20.5788C7.79651 20.4568 7.86274 20.3621 7.90177 20.3065L8.43869 20.4764V67.1096L7.90059 65.2771L7.90117 65.2818ZM2.34275 54.4947C2.02225 53.6115 1.72836 52.7206 1.46109 51.822C1.19263 50.9175 0.950383 50.0053 0.734354 49.0854L0.726074 49.0179V35.3249L0.739082 35.2432C0.917661 34.6299 1.10748 34.02 1.30852 33.4135C1.50957 32.8069 1.72088 32.2077 1.94242 31.6157C2.00983 31.4346 2.07665 31.2606 2.14111 31.0924C2.21384 30.906 2.28244 30.7313 2.3463 30.5715L2.91515 30.681V58.3923L2.34275 54.4947Z" fill="black"/>
</svg>
