<svg width="92" height="86" viewBox="0 0 92 86" fill="none" xmlns="http://www.w3.org/2000/svg">
<path fill-rule="evenodd" clip-rule="evenodd" d="M91.3072 48.8167C91.0943 49.75 90.8533 50.6774 90.584 51.5989C90.3148 52.5203 90.0191 53.428 89.6971 54.3218L89.1246 55.2224V35.1473L89.7029 35.0639C89.7944 35.3764 89.8872 35.7044 89.9815 36.0477C90.0772 36.3993 90.1642 36.7296 90.2411 37.0351C90.4669 37.9325 90.6696 38.8419 90.8489 39.7634C91.0259 40.671 91.1797 41.5923 91.3102 42.5272L91.3137 42.5674V48.7486L91.3054 48.8143L91.3072 48.8167ZM85.7488 62.6784C85.4902 63.1125 85.2286 63.535 84.9641 63.9458C84.6996 64.3566 84.4256 64.7696 84.1421 65.1848L83.6023 66.0184V22.8122L84.1487 22.6559L84.3355 22.959L84.5194 23.2615C84.7284 23.6088 84.9395 23.9699 85.1527 24.3448C85.3617 24.7118 85.5627 25.0756 85.7559 25.4363L85.792 25.5766V62.5287L85.7488 62.6802V62.6784ZM80.1904 70.1903C79.9207 70.4887 79.657 70.7734 79.3991 71.0445C79.1323 71.3259 78.8603 71.6053 78.5831 71.8827L78.0788 72.6743V15.5377L78.5914 15.3376L78.7996 15.5661L79.0071 15.797C79.2176 16.0338 79.4195 16.2629 79.6126 16.4843C79.8058 16.7056 80.0011 16.9365 80.1986 17.1768L80.2678 17.3651V69.9926L80.1904 70.1903ZM74.6319 75.4214C74.3705 75.6302 74.105 75.8375 73.8354 76.0435C73.5853 76.2341 73.3145 76.4366 73.0235 76.6485L72.5552 76.9907V9.79756L73.033 10.1746C73.0921 10.222 73.1743 10.2865 73.2695 10.3641C73.3227 10.4067 73.4031 10.4712 73.506 10.5553C73.7162 10.7257 73.9087 10.8836 74.0838 11.0288C74.2588 11.1741 74.4441 11.3319 74.6396 11.5024L74.7425 11.5912V75.332L74.6301 75.4214H74.6319ZM69.0735 79.2359C68.8322 79.3762 68.5644 79.5283 68.2734 79.6905C67.9825 79.8527 67.7093 80.0013 67.4651 80.131L67.0311 80.3618V6.14758L67.4734 6.40331C67.5822 6.46665 67.672 6.51814 67.743 6.56017L68.0138 6.71941C68.1928 6.82596 68.3759 6.93646 68.5632 7.0509C68.737 7.15706 68.9097 7.2644 69.0812 7.37293L69.2201 7.46054V79.1501L69.0735 79.2359ZM63.5151 81.9956C63.2359 82.114 62.9675 82.2211 62.715 82.3212C62.4743 82.4165 62.2059 82.5195 61.9072 82.6308L61.5087 82.7788V3.51636L61.9149 3.6821L62.2147 3.80642C62.2626 3.82595 62.3608 3.86561 62.5104 3.93191C62.6712 3.99979 62.8402 4.07299 63.0172 4.15152C63.2052 4.2338 63.372 4.30898 63.5204 4.37528L63.6978 4.4546V81.9198L63.5151 81.9956ZM57.9566 83.8952C57.6913 83.9674 57.4242 84.0375 57.1554 84.1053C56.8958 84.171 56.6273 84.2362 56.3482 84.3007L55.9869 84.3847V1.74109L56.3565 1.83699L56.6906 1.9246L57.0229 2.01635C57.1672 2.05582 57.3233 2.10021 57.4913 2.14954C57.6852 2.20519 57.846 2.25254 57.9643 2.28865L58.1754 2.35258V83.836L57.9566 83.8952ZM52.3982 85.0335C52.1084 85.0744 51.8382 85.1105 51.5969 85.1407C51.3557 85.1708 51.0825 85.1999 50.7898 85.2336L50.4646 85.2673V0.728262L50.7969 0.770292L51.1641 0.81824L51.5295 0.869147C51.6389 0.885129 51.7832 0.906439 51.9665 0.934852C52.0736 0.951427 52.2214 0.975105 52.4053 1.00529L52.6536 1.04614V84.9974L52.3982 85.0335ZM46.8398 85.4721H46.7724C46.4808 85.4769 46.1887 85.4828 45.9894 85.4828C45.8528 85.4828 45.621 85.4787 45.3886 85.4745H45.2325L44.9416 85.4698V0.421631H45.2473C45.3869 0.421631 45.582 0.421631 45.8298 0.425775C46.0143 0.425775 46.1798 0.431104 46.3283 0.434656L46.5849 0.442348L46.8457 0.451228L47.1307 0.461883V85.4662L46.8398 85.4721ZM41.2813 85.2431C40.9892 85.2129 40.7219 85.1839 40.4748 85.1525C40.2276 85.1211 39.9639 85.0868 39.6729 85.0465L39.4181 85.011V0.805215L39.6777 0.772658C39.8793 0.747204 40.0194 0.729445 40.0999 0.720566C40.2181 0.706951 40.36 0.690969 40.5286 0.673211L40.9023 0.635325L41.2861 0.599217L41.6071 0.570804V85.2792L41.2813 85.246V85.2431ZM35.6933 84.3149C35.4148 84.2504 35.1452 84.1858 34.8862 84.1207C34.6177 84.0536 34.3506 83.9844 34.0849 83.9129L33.8656 83.8538V1.90624L34.0873 1.84705C34.2576 1.80324 34.4102 1.76418 34.5462 1.72866C34.7159 1.68604 34.8708 1.64875 35.0103 1.6156L35.3486 1.53805C35.5154 1.50017 35.6307 1.47412 35.6969 1.45991L36.0546 1.38178V84.3978L35.6933 84.3149ZM30.1349 82.6574C29.8664 82.558 29.597 82.455 29.3266 82.3484C29.0741 82.249 28.8062 82.1406 28.5265 82.0252L28.3426 81.9488V3.77386L28.5277 3.69868C28.6755 3.63948 28.8381 3.57377 29.0138 3.50452C29.1722 3.44532 29.3408 3.37784 29.5187 3.31036L29.831 3.19197L30.1355 3.0795L30.5317 2.93565V82.7995L30.1349 82.6527V82.6574ZM24.5765 80.1677C24.3151 80.0291 24.0453 79.8827 23.7669 79.7284C23.4886 79.5741 23.2273 79.4218 22.9829 79.2714L22.835 79.1856V6.51933L22.9829 6.4335C23.1727 6.32399 23.3507 6.22158 23.515 6.12924C23.6641 6.04577 23.8391 5.95165 24.0419 5.83859L24.3139 5.69238C24.4034 5.64423 24.4962 5.5951 24.5924 5.54498L25.0241 5.31826V80.3944L24.5912 80.1647L24.5765 80.1677ZM19.018 76.6994C18.7508 76.5052 18.4801 76.3036 18.2062 76.0944C17.9322 75.8853 17.6716 75.6773 17.4244 75.4705L17.3121 75.3817V10.3084L17.4256 10.2184C17.6326 10.0547 17.819 9.90885 17.985 9.78099C18.1632 9.64484 18.3508 9.50317 18.5479 9.35597C18.6467 9.28198 18.7253 9.22278 18.791 9.17838C18.8945 9.10202 18.9737 9.0446 19.0328 9.0008L19.5012 8.66043V77.0374L19.0328 76.6964L19.018 76.6994ZM13.4596 71.9496C13.1837 71.6733 12.912 71.3955 12.6448 71.1161C12.3775 70.8367 12.113 70.5526 11.8512 70.2637L11.7737 70.0648V15.5928L11.8524 15.3933C12.04 15.1885 12.2346 14.9799 12.436 14.7676C12.63 14.5636 12.8271 14.3591 13.0273 14.1543C13.0983 14.0815 13.1705 14.0093 13.2426 13.9365C13.3147 13.8637 13.3863 13.7932 13.4572 13.7222L13.9605 13.2232V72.4492L13.4572 71.9466L13.4596 71.9496ZM7.90117 65.2818C7.61615 64.8683 7.3402 64.4557 7.07332 64.0441C6.80644 63.6325 6.54547 63.2126 6.29041 62.7844L6.24724 62.6329V22.8939L6.29278 22.7388C6.48989 22.4204 6.68936 22.1062 6.8912 21.7964C7.10132 21.4744 7.31084 21.1603 7.51977 20.854L7.70899 20.5788L7.8988 20.3065L8.43632 20.4764V66.1096L7.89821 65.2771L7.90117 65.2818ZM2.34274 54.4947C2.02224 53.6115 1.72836 52.7206 1.46108 51.822C1.19262 50.9175 0.950376 50.0053 0.734346 49.0854L0.726074 49.0179V35.3249L0.739082 35.2432C0.917661 34.63 1.10747 34.02 1.30852 33.4135C1.50957 32.8069 1.72087 32.2077 1.94241 31.6157C2.00982 31.4346 2.07626 31.2602 2.1417 31.0925C2.21384 30.906 2.28243 30.7314 2.34629 30.5715L2.91573 30.681V55.3923L2.34274 54.4947Z" fill="black"/>
</svg>
