<svg width="38" height="45" viewBox="0 0 38 45" fill="none" xmlns="http://www.w3.org/2000/svg">
<path fill-rule="evenodd" clip-rule="evenodd" d="M31.1919 35.6995C31.2192 35.6559 31.2507 35.615 31.286 35.5776C31.3268 35.5359 31.3715 35.4982 31.4196 35.4651C31.4474 35.4456 31.4752 35.4278 31.5042 35.4095L31.5444 35.3722L31.5574 35.3509L31.7348 35.0549H31.7105L31.7017 34.7625L31.6916 34.4369V34.3582V34.3493L31.6822 34.0533C31.6774 33.8444 31.6751 33.6389 31.6822 33.4543C31.6857 33.3655 31.6916 33.2826 31.6999 33.2062C31.7082 33.1299 31.7206 33.0476 31.7366 32.9694C31.7503 32.9 31.7688 32.8315 31.7921 32.7646C31.8147 32.6979 31.8436 32.6334 31.8785 32.5722L31.9796 32.3947L32.0902 32.1969C32.1044 32.1715 32.131 32.123 32.1765 32.0377L32.2581 31.8862L32.3438 31.724L32.4071 31.6056L32.5816 31.2676C32.6762 31.0847 32.7672 30.9083 32.8536 30.7455C32.9399 30.5827 33.031 30.4116 33.1273 30.2447C33.2237 30.0778 33.3219 29.9108 33.4189 29.7575C33.5206 29.5977 33.6294 29.4373 33.7471 29.2763C33.8393 29.1496 33.9333 29.027 34.0285 28.9098C34.1237 28.7926 34.2308 28.6689 34.3467 28.5428C34.4626 28.4167 34.5832 28.293 34.7015 28.1729C34.8114 28.0659 34.9297 27.9562 35.0562 27.8437C34.9928 27.7648 34.925 27.6827 34.8528 27.5975C34.7499 27.4755 34.6541 27.3637 34.5572 27.2542L34.3863 27.0553L34.1651 26.7989C34.0841 26.7042 34.0031 26.6101 33.925 26.5178C33.8659 26.4497 33.7914 26.3591 33.6885 26.2348C33.598 26.1259 33.5188 26.0288 33.4555 25.9507C33.4147 25.8992 33.3645 25.8358 33.3036 25.7571C33.2427 25.6784 33.1853 25.6038 33.1492 25.5576C33.0966 25.4878 33.0469 25.4203 33.0002 25.3564C32.9535 25.2924 32.9062 25.2255 32.8654 25.1663L32.7241 24.9627L32.7282 24.9592L32.5626 24.7088L32.5384 24.665L32.5224 24.6294L32.5171 24.6194C32.4828 24.5602 32.458 24.5128 32.4373 24.4791C32.4124 24.4353 32.387 24.3867 32.3604 24.3352C32.3338 24.2837 32.3125 24.2393 32.2906 24.1938C32.2658 24.1393 32.2439 24.0919 32.2268 24.0523C32.2049 24.0002 32.1842 23.9487 32.1676 23.8978C32.1511 23.8469 32.1327 23.8019 32.115 23.7457C32.0973 23.6894 32.0854 23.648 32.0718 23.5965C32.0576 23.542 32.0458 23.4923 32.0369 23.4479C31.9122 23.1188 31.8046 22.8056 31.7129 22.5043C31.6213 22.203 31.5491 21.9284 31.4953 21.6756C31.4436 21.4333 31.4041 21.1885 31.377 20.9422C31.353 20.7226 31.3416 20.5018 31.3427 20.281C31.3427 19.5452 31.4841 18.9467 31.6668 18.2908H31.5964L31.7797 17.893C31.9086 17.4437 32.0505 16.9459 32.1688 16.3445C32.3109 15.6087 32.3959 14.863 32.4231 14.114C32.4457 13.5818 32.4202 13.0486 32.3468 12.5211C32.2746 12.0042 32.154 11.4952 31.9867 11.0009C31.8175 10.5018 31.6026 10.0195 31.3445 9.56012C31.2972 9.47428 31.2475 9.39022 31.1973 9.30617V5.85687C31.5344 6.1917 31.8526 6.54505 32.1505 6.91528C32.5682 7.43467 32.9404 7.98922 33.2628 8.57275C33.576 9.14068 33.8367 9.73609 34.0415 10.3516C34.2449 10.964 34.3909 11.5939 34.4779 12.2334C34.566 12.8847 34.5963 13.5426 34.5684 14.1992C34.5383 15.0538 34.4428 15.9047 34.2828 16.7446C34.1474 17.4402 33.9871 17.9943 33.8458 18.4945L33.8381 18.5146L33.763 18.7839C33.7287 18.9076 33.695 19.0302 33.6637 19.1568C33.6323 19.2835 33.6045 19.3936 33.5839 19.5185C33.5523 19.6809 33.5298 19.845 33.5164 20.0098C33.5031 20.182 33.5013 20.3548 33.5111 20.5272C33.5234 20.7279 33.5483 20.9276 33.5856 21.1251C33.6309 21.3646 33.6883 21.6017 33.7577 21.8354C33.8334 22.0923 33.9274 22.3723 34.0433 22.6795C34.1592 22.9868 34.2946 23.3165 34.4572 23.6859L34.4626 23.6953C34.5069 23.7652 34.5536 23.8356 34.6033 23.9073C34.653 23.9789 34.7121 24.0618 34.7712 24.1411C34.8173 24.2038 34.88 24.2855 34.9545 24.382C35.029 24.4785 35.0947 24.5596 35.1485 24.6271C35.2348 24.7342 35.3058 24.8206 35.3655 24.8929C35.4128 24.9521 35.4903 25.042 35.5855 25.1539C35.7327 25.3274 35.8723 25.489 36.0077 25.6452L36.0213 25.6612L36.0396 25.6831L36.2649 25.9442L36.2779 25.959L36.4435 26.1513L36.4701 26.1821L36.5765 26.3106C36.6227 26.3656 36.6564 26.4065 36.6741 26.429L36.7717 26.5474C36.7941 26.5758 36.8249 26.6148 36.8657 26.6658C36.9361 26.7563 37.0035 26.8493 37.0673 26.9434C37.1265 27.0316 37.1856 27.121 37.2364 27.218C37.284 27.3038 37.3268 27.3922 37.3648 27.4826C37.4004 27.5691 37.4294 27.6582 37.4517 27.749C37.4795 27.8622 37.494 27.9782 37.4949 28.0947C37.4953 28.21 37.4777 28.3246 37.4428 28.4345C37.4072 28.5455 37.3532 28.6498 37.2832 28.7429C37.2092 28.8403 37.1225 28.9273 37.0253 29.0016C36.8521 29.136 36.6883 29.2715 36.5322 29.4095C36.3761 29.5474 36.2407 29.6752 36.1183 29.7995C35.9959 29.9239 35.8764 30.0559 35.7682 30.1837C35.66 30.3116 35.5648 30.4347 35.4725 30.5632C35.3803 30.6916 35.2898 30.8248 35.2082 30.9539C35.1266 31.0829 35.0426 31.225 34.9634 31.3682C34.9108 31.4612 34.8546 31.563 34.7967 31.6707C34.7523 31.7536 34.6955 31.8613 34.6311 31.9856L34.485 32.2668C34.3833 32.4633 34.2769 32.6687 34.1367 32.9327C34.0055 33.179 33.8742 33.4199 33.7465 33.6431C33.7329 33.6674 33.7465 33.7283 33.7689 33.8207C33.8073 33.968 33.8299 34.119 33.8363 34.2712V34.2783V34.2913L33.847 34.5725C33.847 34.6257 33.847 34.6802 33.8505 34.7352C33.8505 34.8086 33.8505 34.8809 33.8505 34.9531C33.8505 35.0253 33.8505 35.1028 33.8452 35.1668C33.8417 35.255 33.8352 35.3373 33.8269 35.4107C33.8182 35.4902 33.8054 35.5692 33.7884 35.6474C33.7732 35.7173 33.7535 35.7861 33.7293 35.8534C33.7061 35.92 33.6766 35.9842 33.6412 36.0452C33.5909 36.1299 33.5525 36.1932 33.5229 36.2388C33.4804 36.3063 33.4419 36.3667 33.4047 36.4199C33.3674 36.4732 33.3379 36.52 33.3095 36.5602C33.2811 36.6005 33.2503 36.6472 33.2172 36.6863L33.1735 36.7455L33.1333 36.797L33.1007 36.8355L33.0966 36.8414L33.0842 36.855L33.0676 36.8899L33.0481 37.0154L33.0392 37.0675L33.028 37.1356V37.1409L32.9996 37.3061L32.9748 37.4446L32.9452 37.6056L32.9009 37.8359C32.8352 38.1879 32.7325 38.5319 32.5946 38.8623C32.4653 39.1712 32.298 39.4627 32.0967 39.7301C31.9094 39.9768 31.6923 40.1993 31.4504 40.3925C31.3715 40.4565 31.2895 40.5172 31.2044 40.5748V36.7946L31.1919 35.6995ZM20.6073 40.7353C20.5541 41.0147 20.5168 41.2969 20.4955 41.5806C20.4753 41.8593 20.4716 42.139 20.4843 42.4182C20.4973 42.7142 20.5286 43.0427 20.5813 43.4097L20.6221 43.6974L20.3353 43.743L18.8085 43.9857L18.5128 44.0324L18.4697 43.7365C18.3136 42.6709 18.3011 41.8742 18.381 41.1319C18.449 40.5008 18.5826 39.9178 18.7511 39.2376H18.653L18.8505 38.8416L18.857 38.8173L17.4514 37.6926L17.2521 37.5334L17.3793 37.3138L17.7341 36.6982L17.8612 36.4785L18.0977 36.5721L20.4287 37.4997L20.6256 37.5748C20.8515 37.6607 21.0768 37.7459 21.2814 37.8205C21.5309 37.9122 21.784 38.0028 22.0306 38.0881C22.2772 38.1733 22.5385 38.2615 22.8194 38.3515C23.1003 38.4414 23.3753 38.5291 23.642 38.6031C23.9086 38.677 24.1883 38.7552 24.4935 38.8321C24.7891 38.9055 25.0747 38.9724 25.3526 39.0293C25.6306 39.0861 25.9233 39.1388 26.216 39.1826C26.4998 39.2246 26.7813 39.2578 27.058 39.2802C27.2999 39.2992 27.5394 39.3098 27.7747 39.3098C27.9984 39.3107 28.222 39.3001 28.4447 39.2779C28.6565 39.2569 28.8666 39.2207 29.0732 39.1696C29.2527 39.1262 29.4278 39.0668 29.5966 38.992C29.7467 38.9247 29.8887 38.8407 30.02 38.7416C30.1434 38.6472 30.2546 38.5378 30.3511 38.416C30.456 38.2832 30.5432 38.1373 30.6107 37.9821C30.6845 37.8111 30.7388 37.6324 30.7727 37.4493L30.8058 37.2718L30.8448 37.0622L30.865 36.9527L30.8774 36.8823L30.8992 36.7603L30.9223 36.6259L30.9436 36.5004L30.9602 36.398V36.3886L30.9785 36.2749V36.2702L30.9862 36.2246V36.2199L30.9939 36.179V36.1743C30.9998 36.1441 31.0039 36.1257 31.0069 36.1151C31.011 36.0997 31.0163 36.0796 31.024 36.0559C31.024 36.0482 31.0335 36.0275 31.0441 35.9967C31.0506 35.9789 31.0571 35.9606 31.0648 35.9422V35.9369C31.0921 35.8685 31.1243 35.8023 31.1612 35.7386C31.1683 35.7262 31.1754 35.7143 31.1825 35.7037V36.816V40.5962C31.0127 40.7116 30.8349 40.8147 30.6503 40.9046C30.3781 41.0359 30.0947 41.1425 29.8035 41.223C29.5034 41.3057 29.1977 41.3665 28.8888 41.4048C28.5631 41.4452 28.2353 41.4667 27.9072 41.4693C27.5666 41.4728 27.2248 41.4598 26.8842 41.4326C26.5684 41.4071 26.2485 41.3698 25.9274 41.3225C25.6176 41.2769 25.2965 41.2195 24.9689 41.1532C24.6413 41.0869 24.3243 41.0141 24.0151 40.9371C23.6902 40.8562 23.3767 40.772 23.0743 40.6844C22.8786 40.6281 22.6663 40.566 22.4428 40.4949C22.2192 40.4239 22.0093 40.3588 21.8313 40.2996C21.6746 40.2481 21.4765 40.1812 21.24 40.0989C21.0626 40.0397 20.9095 39.9805 20.7746 39.9343C20.7055 40.2191 20.6445 40.4843 20.5972 40.7394L20.6073 40.7353ZM31.1919 9.30262V5.85332C31.0406 5.70296 30.8849 5.55517 30.7248 5.40994C30.1879 4.9253 29.617 4.4798 29.0165 4.07687C28.3854 3.6523 27.7272 3.26948 27.0462 2.93085C26.3359 2.57725 25.6054 2.26613 24.8583 1.99912C24.3959 1.83337 23.9199 1.68183 23.4338 1.5445C22.9477 1.40716 22.4599 1.28759 21.962 1.18222C21.4641 1.07685 20.9568 0.987475 20.4524 0.914665C19.948 0.841855 19.4329 0.784428 18.9214 0.744768C18.4196 0.705304 17.9071 0.682025 17.384 0.674921C16.8715 0.668607 16.3642 0.678671 15.8619 0.705112C15.3597 0.731552 14.8602 0.774761 14.3635 0.834746C13.8731 0.893941 13.3849 0.9705 12.8988 1.06442C12.3721 1.16584 11.8506 1.28819 11.3342 1.43144C10.8292 1.57232 10.3321 1.73353 9.84286 1.91506C9.36429 2.09304 8.89576 2.29154 8.43729 2.51056C7.98552 2.72682 7.54775 2.96183 7.12397 3.21558C6.70019 3.46933 6.29612 3.73965 5.91176 4.02655C5.52841 4.31169 5.16011 4.61656 4.80835 4.93994C4.46203 5.25748 4.13297 5.59341 3.82261 5.94626C2.97487 6.91459 2.27722 8.00489 1.75299 9.18067C1.41305 9.94368 1.14366 10.7363 0.948197 11.5485C0.74412 12.3993 0.611794 13.2658 0.552606 14.1389C0.489757 15.0666 0.495286 15.9977 0.569158 16.9246C0.647519 17.9095 0.787149 18.8885 0.987226 19.8559C1.2035 20.9016 1.47511 21.935 1.80089 22.9518C2.1336 23.9992 2.53629 25.086 3.00895 26.2123C3.47255 27.3134 4.00474 28.4509 4.60552 29.6249C5.59953 31.5582 6.01819 33.3027 6.13705 35.0768C6.25531 36.8663 6.07378 38.6966 5.86504 40.7808C5.84789 40.9525 5.80591 41.297 5.76097 41.6688V41.6948L5.75506 41.7404V41.7481C5.72726 41.9766 5.69592 42.2163 5.66577 42.5016C5.63916 42.7384 5.61373 42.9817 5.59126 43.2315L5.56051 43.579L5.53331 43.888L5.84375 43.8992L6.19204 43.9117L7.17304 43.9466L7.48645 43.9578L7.76496 43.9679L7.78979 43.6885L7.81759 43.3748C7.82232 43.3197 7.82941 43.2386 7.83769 43.1333L7.86016 42.8527L7.87908 42.5958L7.89682 42.3542V42.3483C7.91456 42.105 7.9323 41.8564 7.95182 41.6037C7.97133 41.3509 7.98907 41.1384 8.00386 40.9874C8.12212 39.8314 8.22382 38.7534 8.28 37.7199C8.3424 36.7144 8.33885 35.7059 8.26936 34.7009C8.1956 33.6996 8.02248 32.7081 7.75254 31.7411C7.44691 30.6679 7.03302 29.6287 6.51727 28.6393C5.95039 27.5343 5.4519 26.473 5.02182 25.4552C4.57872 24.4086 4.20126 23.4003 3.88943 22.4303C3.5835 21.49 3.32691 20.5343 3.12071 19.5671C2.93209 18.6824 2.79879 17.7868 2.72157 16.8855C2.65073 16.0662 2.63927 15.2428 2.68728 14.4218C2.73266 13.6604 2.84125 12.904 3.01191 12.1606C3.17421 11.4558 3.40187 10.7677 3.69193 10.1053C4.13038 9.10082 4.72294 8.1711 5.44816 7.34977C5.71055 7.05138 5.98888 6.76742 6.28192 6.49914C6.5812 6.22653 6.89444 5.96967 7.22035 5.7296C7.55268 5.48374 7.898 5.25406 8.25634 5.04057C8.62257 4.82273 9.0024 4.62028 9.39582 4.43322C9.78925 4.24617 10.1982 4.07431 10.6228 3.91764C11.0521 3.75978 11.4877 3.61929 11.9296 3.49617C12.3779 3.37265 12.8365 3.2655 13.3056 3.17473C13.7385 3.09127 14.1796 3.0226 14.6261 2.96873C15.0814 2.91388 15.5347 2.87442 15.9861 2.85034C16.4497 2.82548 16.9115 2.81661 17.3686 2.82252C17.8257 2.82844 18.2893 2.85034 18.76 2.88705C19.2307 2.92375 19.6872 2.97524 20.1449 3.04095C20.6026 3.10666 21.0626 3.18894 21.5126 3.28424C21.9626 3.37955 22.4085 3.48906 22.849 3.61337C23.2895 3.73768 23.7117 3.87265 24.1363 4.02774C24.7851 4.25927 25.4201 4.52807 26.038 4.83279C26.624 5.12206 27.191 5.44829 27.7357 5.80951C28.2524 6.15168 28.7442 6.5301 29.2075 6.94192C29.6437 7.32988 30.0484 7.75188 30.4179 8.20395C30.7015 8.55125 30.9601 8.91879 31.1919 9.30262Z" fill="black"/>
</svg>
