<svg width="1000" height="1000" viewBox="0 0 1000 1000" fill="none" xmlns="http://www.w3.org/2000/svg">
<g clip-path="url(#clip0_59_2)">
<path d="M500 982C760.678 982 972 766.201 972 500C972 233.799 760.678 18 500 18C239.322 18 28 233.799 28 500C28 766.201 239.322 982 500 982Z" fill="black"/>
<path d="M500 964.182C751.045 964.182 954.556 756.361 954.556 500C954.556 243.639 751.045 35.8179 500 35.8179C248.956 35.8179 45.4443 243.639 45.4443 500C45.4443 756.361 248.956 964.182 500 964.182Z" fill="#23CE6B"/>
<path fill-rule="evenodd" clip-rule="evenodd" d="M945.52 606.402C943.422 615.582 941.052 624.705 938.408 633.769C935.765 642.833 932.857 651.762 929.686 660.554L924.052 669.413V471.94L929.744 471.119C930.648 474.193 931.561 477.419 932.483 480.796C933.425 484.255 934.28 487.504 935.036 490.509C937.253 499.336 939.246 508.282 941.013 517.346C942.75 526.275 944.262 535.337 945.549 544.533L945.584 544.929V605.732L945.502 606.378L945.52 606.402ZM890.862 742.756C888.323 747.026 885.751 751.181 883.146 755.223C880.541 759.264 877.845 763.326 875.058 767.41L869.755 775.61V350.603L875.127 349.065L876.965 352.047L878.773 355.022C880.824 358.438 882.899 361.99 885.001 365.678C887.051 369.288 889.028 372.867 890.932 376.415L891.286 377.795V741.283L890.862 742.773V742.756ZM836.204 816.648C833.552 819.583 830.959 822.384 828.424 825.05C825.796 827.818 823.121 830.567 820.4 833.296L815.434 841.083V279.045L820.481 277.077L822.528 279.325L824.563 281.596C826.641 283.925 828.625 286.178 830.517 288.356C832.409 290.534 834.33 292.805 836.279 295.169L836.966 297.02V814.703L836.204 816.648ZM781.546 868.105C778.976 870.158 776.363 872.198 773.708 874.225C771.254 876.1 768.585 878.091 765.73 880.176L761.119 883.541V222.581L765.823 226.29L768.149 228.153C768.672 228.573 769.463 229.207 770.475 230.034C772.537 231.711 774.429 233.264 776.15 234.692C777.871 236.121 779.695 237.674 781.622 239.351L782.633 240.224V867.226L781.529 868.105H781.546ZM726.888 905.627C724.522 907.007 721.888 908.504 719.027 910.099C716.166 911.695 713.48 913.156 711.078 914.432L706.804 916.703V186.677L711.154 189.192L713.811 190.735L716.474 192.302C718.23 193.35 720.031 194.437 721.876 195.563C723.58 196.605 725.283 197.665 726.97 198.73L728.336 199.592V904.783L726.888 905.627ZM672.23 932.774C669.486 933.938 666.846 934.992 664.363 935.976C661.996 936.914 659.357 937.927 656.414 939.022L652.501 940.477V160.794L656.496 162.425L659.444 163.648C659.915 163.84 660.88 164.23 662.351 164.882C663.933 165.55 665.594 166.27 667.334 167.042C669.183 167.852 670.823 168.591 672.283 169.243L674.027 170.024V932.028L672.23 932.774ZM617.572 951.459C614.964 952.17 612.337 952.859 609.694 953.526C607.143 954.175 604.497 954.815 601.757 955.448L598.204 956.275V143.332L601.832 144.275C603.367 144.671 604.431 144.956 605.117 145.137C605.804 145.317 606.949 145.637 608.385 146.039C609.821 146.441 611.345 146.866 612.996 147.349C614.903 147.897 616.485 148.362 617.648 148.718L619.73 149.347V950.877L617.572 951.459ZM562.914 962.657C560.065 963.058 557.402 963.414 555.036 963.711C552.669 964.008 549.977 964.293 547.099 964.625L543.901 964.957V133.369L547.168 133.782L550.779 134.254L554.373 134.754C555.448 134.912 556.867 135.121 558.67 135.401C559.722 135.564 561.176 135.797 562.984 136.094L565.426 136.495V962.301L562.914 962.657ZM508.257 966.971H507.594C504.727 967.018 501.849 967.076 499.895 967.076C498.552 967.076 496.267 967.035 493.987 966.995H492.452L489.586 966.948V130.352H492.598C493.97 130.352 495.889 130.352 498.325 130.393C500.139 130.393 501.767 130.445 503.227 130.48L505.751 130.556L508.309 130.643L511.117 130.748V966.913L508.257 966.971ZM453.599 964.718C450.726 964.421 448.098 964.136 445.668 963.827C443.237 963.518 440.638 963.181 437.783 962.785L435.277 962.435V134.126L437.829 133.805C439.812 133.555 441.19 133.38 441.981 133.293C443.144 133.159 444.54 133.002 446.197 132.827L449.872 132.454L453.645 132.099L456.803 131.82V965.073L453.599 964.747V964.718ZM398.65 955.588C395.91 954.955 393.262 954.318 390.707 953.678C388.071 953.018 385.447 952.337 382.834 951.634L380.677 951.052V144.956L382.858 144.374C384.526 143.943 386.032 143.559 387.364 143.209C389.039 142.79 390.562 142.423 391.934 142.097L395.26 141.334C396.896 140.946 398.038 140.69 398.685 140.566L402.174 139.797V956.403L398.621 955.582L398.65 955.588ZM343.992 939.284C341.356 938.305 338.707 937.292 336.044 936.244C333.567 935.266 330.933 934.2 328.182 933.065L326.374 932.314V163.327L328.194 162.588C329.648 162.005 331.247 161.359 332.974 160.678C334.532 160.096 336.189 159.432 337.939 158.768L341.009 157.603L344.004 156.497L347.9 155.082V940.681L343.992 939.237V939.284ZM289.334 914.793C286.764 913.43 284.111 911.99 281.374 910.472C278.637 908.954 276.063 907.456 273.652 905.977L272.199 905.132V190.334L273.652 189.489C275.519 188.412 277.269 187.405 278.885 186.496C280.347 185.677 282.074 184.724 284.066 183.637L286.741 182.199C287.617 181.726 288.53 181.242 289.48 180.749L293.725 178.519V917.023L289.468 914.764L289.334 914.793ZM234.677 880.676C232.056 878.766 229.397 876.783 226.699 874.725C224.001 872.668 221.433 870.622 218.994 868.588L217.89 867.715V227.606L219 226.721C221.035 225.11 222.871 223.676 224.507 222.418C226.259 221.067 228.104 219.673 230.042 218.237C231.013 217.509 231.787 216.927 232.432 216.49L234.804 214.743L239.416 211.395V884.001L234.804 880.647L234.677 880.676ZM180.019 833.954C177.305 831.236 174.634 828.503 172.006 825.755C169.378 823.007 166.777 820.212 164.203 817.37L163.441 815.414V279.587L164.214 277.624C166.056 275.61 167.969 273.558 169.953 271.47C171.861 269.463 173.799 267.452 175.768 265.437C176.472 264.721 177.181 264.011 177.891 263.294C178.6 262.578 179.298 261.885 180.001 261.187L184.95 256.278V838.868L180.001 833.924L180.019 833.954ZM125.361 768.365C122.558 764.297 119.854 760.238 117.249 756.189C114.644 752.14 112.076 748.01 109.545 743.798L109.126 742.307V351.406L109.568 349.881C111.506 346.748 113.47 343.658 115.458 340.61C117.517 337.443 119.577 334.353 121.639 331.341L123.5 328.633C124.332 327.433 124.983 326.502 125.367 325.954L130.646 327.626V786.344L125.355 768.318L125.361 768.365ZM70.7029 662.254C67.5514 653.567 64.6615 644.803 62.0333 635.964C59.3934 627.067 57.0114 618.094 54.8871 609.045L54.8057 608.381V473.687L54.9336 472.883C56.6896 466.85 58.5561 460.851 60.5331 454.884C62.5101 448.918 64.5879 443.023 66.7664 437.2C67.4293 435.419 68.0864 433.707 68.7202 432.053C69.4354 430.219 70.1099 428.501 70.7379 426.929L76.3316 428.006V700.594L70.7029 662.254Z" fill="black"/>
<path d="M500 927.55C750.277 927.55 953.167 724.374 953.167 473.744C953.167 223.115 750.277 19.939 500 19.939C249.723 19.939 46.834 223.115 46.834 473.744C46.834 724.374 249.723 927.55 500 927.55Z" fill="black"/>
<path d="M804.437 778.613C972.574 610.238 972.574 337.25 804.437 168.876C636.3 0.501632 363.697 0.501567 195.56 168.876C27.4229 337.25 27.423 610.238 195.56 778.613C363.697 946.987 636.3 946.987 804.437 778.613Z" fill="#23CE6B"/>
<path d="M724.158 698.22C847.958 574.245 847.958 373.243 724.158 249.268C600.358 125.293 399.639 125.293 275.839 249.268C152.038 373.243 152.038 574.245 275.839 698.22C399.639 822.195 600.358 822.195 724.158 698.22Z" fill="black"/>
<path d="M705.471 679.507C818.951 565.867 818.951 381.621 705.471 267.981C591.992 154.342 408.005 154.342 294.526 267.981C181.046 381.621 181.046 565.867 294.526 679.507C408.005 793.146 591.992 793.146 705.471 679.507Z" fill="#23CE6B"/>
<path fill-rule="evenodd" clip-rule="evenodd" d="M619.887 605.248C620.154 604.819 620.464 604.417 620.811 604.049C621.213 603.638 621.653 603.268 622.126 602.942C622.399 602.75 622.672 602.575 622.957 602.395L623.352 602.028L623.48 601.818L625.225 598.907H624.986L624.899 596.03L624.8 592.828V592.053V591.966L624.707 589.055C624.661 586.999 624.637 584.979 624.707 583.162C624.742 582.289 624.8 581.473 624.882 580.722C624.963 579.971 625.085 579.162 625.242 578.393C625.377 577.709 625.559 577.036 625.789 576.378C626.01 575.722 626.295 575.088 626.638 574.486L627.632 572.739L628.719 570.794C628.859 570.544 629.121 570.066 629.568 569.228L630.371 567.737L631.214 566.142L631.836 564.977L633.551 561.652C634.482 559.853 635.377 558.118 636.226 556.517C637.075 554.915 637.97 553.232 638.918 551.59C639.866 549.948 640.831 548.306 641.785 546.798C642.785 545.226 643.855 543.648 645.012 542.064C645.919 540.818 646.844 539.613 647.78 538.46C648.716 537.307 649.768 536.09 650.908 534.85C652.048 533.609 653.234 532.392 654.397 531.21C655.478 530.158 656.641 529.079 657.886 527.973C657.262 527.196 656.595 526.389 655.885 525.55C654.874 524.351 653.932 523.25 652.978 522.173L651.298 520.217L649.123 517.695C648.326 516.764 647.53 515.838 646.762 514.93C646.181 514.26 645.448 513.369 644.436 512.146C643.547 511.075 642.768 510.12 642.145 509.351C641.744 508.845 641.25 508.222 640.651 507.447C640.052 506.673 639.488 505.939 639.133 505.485C638.616 504.798 638.127 504.134 637.668 503.505C637.209 502.876 636.744 502.218 636.342 501.636L634.953 499.633L634.993 499.598L633.365 497.135L633.127 496.704L632.97 496.355L632.918 496.256C632.58 495.673 632.336 495.207 632.133 494.876C631.888 494.445 631.638 493.967 631.377 493.461C631.115 492.954 630.906 492.517 630.691 492.069C630.446 491.533 630.231 491.067 630.062 490.677C629.847 490.165 629.644 489.658 629.481 489.157C629.318 488.657 629.138 488.214 628.964 487.661C628.789 487.108 628.673 486.7 628.539 486.194C628.399 485.658 628.283 485.169 628.196 484.732C626.969 481.495 625.911 478.414 625.01 475.45C624.108 472.487 623.399 469.785 622.87 467.298C622.361 464.915 621.973 462.507 621.707 460.084C621.471 457.924 621.358 455.752 621.37 453.58C621.37 446.342 622.759 440.455 624.556 434.003H623.864L625.667 430.09C626.934 425.671 628.33 420.774 629.493 414.858C630.89 407.62 631.726 400.284 631.993 392.917C632.216 387.682 631.965 382.437 631.243 377.248C630.533 372.163 629.347 367.157 627.702 362.295C626.038 357.385 623.924 352.641 621.387 348.122C620.922 347.277 620.433 346.45 619.939 345.624V311.694C623.254 314.987 626.383 318.463 629.312 322.105C633.42 327.214 637.08 332.669 640.25 338.409C643.33 343.996 645.893 349.853 647.908 355.907C649.907 361.931 651.344 368.128 652.199 374.418C653.065 380.825 653.363 387.296 653.089 393.756C652.792 402.161 651.853 410.532 650.28 418.794C648.949 425.636 647.373 431.086 645.983 436.006L645.907 436.204L645.169 438.854C644.832 440.071 644.5 441.276 644.192 442.522C643.884 443.768 643.611 444.851 643.407 446.08C643.097 447.677 642.876 449.291 642.744 450.913C642.613 452.606 642.596 454.306 642.692 456.002C642.813 457.976 643.057 459.94 643.425 461.883C643.87 464.24 644.435 466.572 645.117 468.871C645.861 471.398 646.786 474.152 647.925 477.174C649.065 480.196 650.396 483.439 651.995 487.073L652.048 487.166C652.484 487.853 652.943 488.546 653.432 489.251C653.92 489.955 654.502 490.77 655.083 491.551C655.537 492.168 656.153 492.971 656.886 493.921C657.618 494.87 658.264 495.667 658.793 496.331C659.642 497.385 660.34 498.235 660.927 498.946C661.392 499.528 662.154 500.413 663.09 501.514C664.538 503.22 665.91 504.809 667.242 506.347L667.375 506.504L667.556 506.719L669.771 509.287L669.899 509.433L671.527 511.325L671.789 511.628L672.835 512.892C673.289 513.433 673.62 513.835 673.795 514.056L674.754 515.221C674.975 515.5 675.277 515.884 675.679 516.385C676.371 517.276 677.033 518.19 677.661 519.116C678.243 519.984 678.824 520.863 679.324 521.818C679.792 522.662 680.213 523.531 680.586 524.421C680.936 525.272 681.222 526.147 681.441 527.041C681.715 528.154 681.857 529.295 681.865 530.442C681.869 531.576 681.697 532.703 681.354 533.784C681.003 534.876 680.473 535.902 679.784 536.818C679.056 537.776 678.204 538.632 677.249 539.362C675.545 540.684 673.934 542.018 672.399 543.374C670.864 544.731 669.532 545.989 668.329 547.212C667.125 548.434 665.951 549.733 664.887 550.991C663.822 552.248 662.886 553.46 661.979 554.723C661.072 555.987 660.182 557.297 659.38 558.566C658.578 559.836 657.752 561.233 656.973 562.642C656.455 563.556 655.903 564.558 655.333 565.618C654.897 566.433 654.339 567.493 653.705 568.715L652.269 571.481C651.269 573.414 650.222 575.435 648.844 578.032C647.553 580.454 646.262 582.824 645.006 585.019C644.872 585.258 645.006 585.858 645.227 586.766C645.604 588.216 645.826 589.701 645.89 591.198V591.267V591.396L645.995 594.161C645.995 594.685 645.995 595.221 646.03 595.763C646.03 596.485 646.03 597.195 646.03 597.905C646.03 598.616 646.03 599.379 645.977 600.007C645.942 600.875 645.878 601.685 645.797 602.407C645.712 603.189 645.586 603.966 645.419 604.736C645.27 605.423 645.075 606.1 644.838 606.762C644.609 607.417 644.319 608.049 643.971 608.649C643.477 609.481 643.099 610.104 642.808 610.553C642.39 611.217 642.012 611.81 641.645 612.335C641.279 612.859 640.988 613.319 640.709 613.715C640.43 614.111 640.128 614.571 639.802 614.955L639.372 615.537L638.976 616.044L638.657 616.422L638.616 616.48L638.494 616.614L638.331 616.958L638.139 618.192L638.052 618.705L637.941 619.374V619.427L637.662 621.051L637.418 622.414L637.127 623.998L636.691 626.263C636.045 629.725 635.036 633.11 633.679 636.36C632.408 639.398 630.763 642.265 628.783 644.896C626.942 647.323 624.807 649.511 622.428 651.412C621.653 652.041 620.846 652.639 620.009 653.205V616.02L619.887 605.248ZM515.804 654.783C515.281 657.532 514.914 660.308 514.705 663.098C514.507 665.84 514.47 668.591 514.595 671.338C514.723 674.249 515.031 677.481 515.548 681.091L515.95 683.921L513.13 684.369L498.116 686.757L495.209 687.217L494.784 684.305C493.249 673.824 493.127 665.986 493.912 658.685C494.581 652.477 495.895 646.742 497.552 640.051H496.587L498.529 636.156L498.593 635.917L484.771 624.854L482.812 623.287L484.062 621.127L487.551 615.071L488.801 612.911L491.127 613.831L514.048 622.955L515.985 623.695C518.206 624.539 520.421 625.378 522.433 626.111C524.887 627.014 527.376 627.905 529.8 628.743C532.225 629.582 534.795 630.449 537.557 631.335C540.319 632.22 543.023 633.081 545.645 633.809C548.268 634.537 551.018 635.306 554.018 636.063C556.926 636.785 559.734 637.443 562.467 638.002C565.2 638.561 568.078 639.079 570.956 639.51C573.748 639.923 576.515 640.249 579.237 640.471C581.615 640.657 583.97 640.762 586.284 640.762C588.484 640.771 590.683 640.666 592.872 640.447C594.955 640.241 597.021 639.885 599.053 639.382C600.817 638.955 602.539 638.371 604.199 637.635C605.675 636.974 607.072 636.147 608.362 635.172C609.576 634.244 610.67 633.168 611.618 631.969C612.65 630.663 613.508 629.228 614.171 627.701C614.896 626.02 615.431 624.262 615.764 622.461L616.09 620.714L616.474 618.652L616.671 617.575L616.793 616.882L617.009 615.683L617.235 614.361L617.445 613.126L617.608 612.119V612.026L617.788 610.908V610.861L617.863 610.413V610.366L617.939 609.965V609.918C617.997 609.621 618.038 609.441 618.067 609.336C618.108 609.184 618.16 608.986 618.235 608.753C618.235 608.678 618.328 608.474 618.433 608.171C618.497 607.996 618.561 607.816 618.637 607.636V607.583C618.905 606.911 619.222 606.259 619.585 605.632C619.654 605.51 619.724 605.394 619.794 605.289V616.23V653.415C618.124 654.55 616.375 655.564 614.561 656.449C611.884 657.74 609.098 658.789 606.234 659.581C603.283 660.395 600.276 660.992 597.239 661.369C594.036 661.767 590.813 661.979 587.586 662.004C584.237 662.039 580.876 661.911 577.527 661.643C574.422 661.392 571.276 661.025 568.119 660.56C565.072 660.111 561.915 659.546 558.693 658.894C555.472 658.242 552.355 657.526 549.314 656.769C546.12 655.973 543.036 655.144 540.063 654.283C538.138 653.729 536.051 653.118 533.853 652.419C531.655 651.72 529.591 651.08 527.841 650.498C526.3 649.991 524.352 649.333 522.026 648.524C520.282 647.941 518.776 647.359 517.45 646.905C516.77 649.706 516.171 652.314 515.705 654.824L515.804 654.783ZM619.887 345.589V311.659C618.398 310.18 616.867 308.726 615.293 307.298C610.014 302.53 604.4 298.148 598.495 294.184C592.289 290.008 585.817 286.242 579.12 282.911C572.136 279.433 564.952 276.373 557.606 273.746C553.059 272.116 548.378 270.625 543.598 269.274C538.819 267.923 534.022 266.747 529.126 265.711C524.23 264.674 519.241 263.795 514.281 263.079C509.321 262.362 504.256 261.798 499.227 261.407C494.292 261.019 489.253 260.79 484.109 260.72C479.069 260.658 474.08 260.757 469.142 261.017C464.203 261.277 459.292 261.702 454.407 262.292C449.585 262.875 444.784 263.628 440.004 264.552C434.825 265.549 429.697 266.753 424.619 268.162C419.653 269.548 414.765 271.134 409.954 272.919C405.248 274.67 400.641 276.623 396.133 278.777C391.69 280.904 387.385 283.216 383.218 285.712C379.051 288.208 375.078 290.867 371.298 293.689C367.529 296.494 363.907 299.493 360.448 302.674C357.043 305.798 353.807 309.102 350.755 312.573C342.419 322.098 335.559 332.823 330.404 344.389C327.061 351.895 324.412 359.691 322.49 367.681C320.483 376.05 319.182 384.574 318.6 393.162C317.982 402.287 318.036 411.446 318.763 420.564C319.533 430.252 320.906 439.882 322.874 449.399C325 459.685 327.671 469.85 330.875 479.853C334.146 490.155 338.106 500.846 342.754 511.925C347.313 522.756 352.546 533.945 358.454 545.494C368.228 564.511 372.345 581.671 373.514 599.122C374.677 616.725 372.891 634.729 370.839 655.232C370.67 656.92 370.257 660.309 369.815 663.966V664.222L369.757 664.671V664.746C369.484 666.994 369.176 669.352 368.879 672.159C368.618 674.488 368.368 676.881 368.147 679.338L367.844 682.756L367.577 685.796L370.63 685.907L374.054 686.029L383.701 686.372L386.783 686.483L389.521 686.582L389.766 683.834L390.039 680.747C390.085 680.206 390.155 679.408 390.237 678.372L390.458 675.612L390.644 673.085L390.818 670.709V670.651C390.992 668.257 391.167 665.812 391.359 663.326C391.551 660.839 391.725 658.749 391.871 657.264C393.033 645.892 394.034 635.288 394.586 625.122C395.2 615.231 395.165 605.311 394.481 595.425C393.756 585.575 392.054 575.822 389.399 566.311C386.394 555.754 382.324 545.531 377.252 535.799C371.678 524.929 366.776 514.489 362.547 504.477C358.19 494.183 354.478 484.264 351.412 474.723C348.404 465.473 345.881 456.071 343.853 446.557C341.998 437.855 340.687 429.045 339.928 420.18C339.231 412.12 339.119 404.021 339.591 395.945C340.037 388.455 341.105 381.015 342.783 373.702C344.379 366.769 346.618 360 349.47 353.485C353.781 343.604 359.608 334.458 366.739 326.379C369.32 323.444 372.057 320.651 374.938 318.012C377.881 315.33 380.961 312.803 384.166 310.442C387.434 308.023 390.83 305.764 394.353 303.664C397.955 301.521 401.69 299.53 405.558 297.69C409.427 295.85 413.449 294.159 417.624 292.618C421.845 291.065 426.129 289.683 430.474 288.472C434.882 287.257 439.392 286.203 444.005 285.31C448.261 284.489 452.599 283.814 456.989 283.284C461.466 282.744 465.924 282.356 470.363 282.119C474.921 281.875 479.463 281.788 483.957 281.846C488.452 281.904 493.011 282.119 497.639 282.48C502.268 282.841 506.757 283.348 511.257 283.994C515.758 284.641 520.282 285.45 524.707 286.388C529.132 287.325 533.516 288.402 537.848 289.625C542.18 290.848 546.331 292.176 550.506 293.701C556.886 295.979 563.13 298.623 569.206 301.62C574.968 304.466 580.544 307.675 585.9 311.228C590.981 314.594 595.818 318.316 600.373 322.367C604.662 326.183 608.642 330.335 612.275 334.781C615.064 338.198 617.607 341.813 619.887 345.589Z" fill="black"/>
</g>
<defs>
<clipPath id="clip0_59_2">
<rect width="944" height="964" fill="white" transform="translate(28 18)"/>
</clipPath>
</defs>
</svg>
