<svg width="339" height="386" viewBox="0 0 339 386" fill="none" xmlns="http://www.w3.org/2000/svg">
<path d="M339 218.752C337.443 263.209 280.892 269.759 265.359 235.271C261.043 225.682 252.756 218.446 242.825 214.998L237.461 213.134C225.49 208.986 212.262 210.971 201.997 218.398C201.813 218.534 201.623 218.67 201.433 218.799C191.059 226.11 184.792 237.93 184.792 250.634L196.09 357.035C197.47 372.527 185.336 385.98 169.789 386C169.694 386 169.592 386 169.497 386C169.401 386 169.299 386 169.204 386C153.658 385.98 141.524 372.527 142.904 357.035L154.202 250.634C154.202 237.93 147.934 226.11 137.56 218.799C137.37 218.67 137.18 218.534 136.996 218.398C126.732 210.971 113.503 208.986 101.532 213.134L96.1618 214.998C86.237 218.446 77.9505 225.675 73.6407 235.264C58.1145 269.752 1.5567 263.23 0 218.752C0.0543825 188.297 32.4391 171.805 56.4354 184.285C65.5173 189.011 76.217 189.528 85.8835 186.175L102.742 180.326C109.078 178.123 113.564 172.519 114.468 165.868C114.482 165.773 114.496 165.677 114.509 165.582C115.454 158.917 112.701 152.259 107.188 148.396L92.8173 138.338C84.2249 132.319 73.5795 130.108 63.274 132.026C40.8141 136.216 17.1305 118.955 17.3888 93.9208C17.3888 72.5523 34.7028 55.2235 56.0683 55.2235C75.5237 54.9923 91.4781 69.9475 94.34 88.0788C95.9443 98.2869 101.872 107.319 110.335 113.249L124.733 123.328C130.212 127.164 137.37 127.551 143.257 124.389C143.665 124.171 144.08 123.954 144.494 123.75C150.442 120.744 154.202 114.65 154.202 107.978V94.05C154.202 83.5221 149.756 73.5792 142.217 66.241C119.458 44.0836 132.578 0.550875 169.497 0C206.409 0.544074 219.535 44.0768 196.776 66.2342C189.237 73.5792 184.792 83.5289 184.792 94.05V107.978C184.792 114.65 188.551 120.744 194.499 123.75C194.914 123.954 195.328 124.171 195.736 124.389C201.623 127.551 208.788 127.164 214.26 123.328L228.658 113.249C237.121 107.319 243.042 98.2869 244.653 88.0788C247.515 69.9475 263.47 54.9923 282.925 55.2235C304.29 55.2235 321.604 72.5523 321.604 93.9208C321.863 118.955 298.179 136.209 275.719 132.026C265.414 130.108 254.768 132.319 246.176 138.338L231.805 148.396C226.292 152.259 223.546 158.917 224.484 165.582L224.525 165.868C225.429 172.519 229.916 178.123 236.251 180.326L253.042 186.148C262.98 189.603 273.823 188.664 283.258 184.019C288.404 181.483 294.196 180.054 300.32 180.054C321.679 180.054 339 197.383 339 218.752Z" fill="#23CE6B"/>
</svg>
