<svg width="320" height="151" viewBox="0 0 320 151" fill="none" xmlns="http://www.w3.org/2000/svg">
<path d="M14.3284 79.0952L23.4627 35.9723H41.6637C44.4604 35.9723 46.8962 36.2666 48.9711 36.8552C51.0912 37.3985 52.8279 38.3266 54.1811 39.6395C55.5794 40.9524 56.6169 42.6728 57.2935 44.8007C58.0153 46.9285 58.3761 49.5317 58.3761 52.6103C58.3761 55.9153 57.9476 59.1523 57.0905 62.3215C56.2786 65.4906 54.9028 68.3202 52.9632 70.8102C51.0236 73.3002 48.475 75.3149 45.3174 76.8542C42.205 78.3482 38.3483 79.0952 33.7473 79.0952H14.3284ZM32.8677 74.3415C34.3562 74.3415 35.6643 73.7303 36.792 72.508C37.9648 71.2403 38.9572 69.6557 39.7692 67.7543C40.6262 65.8075 41.3254 63.6797 41.8667 61.3707C42.4531 59.0165 42.9041 56.7528 43.2199 54.5797C43.5808 52.4066 43.8289 50.4598 43.9642 48.7394C44.1446 47.0191 44.2348 45.7967 44.2348 45.0723C44.2348 43.6688 43.9416 42.5823 43.3552 41.8126C42.8139 40.9977 41.8441 40.5902 40.4458 40.5902H37.198L29.9582 74.3415H32.8677Z" fill="white"/>
<path d="M68.2621 35.9723H96.7477L95.6651 41.1335H81.8621L79.0203 54.2402H90.5905L89.5079 59.3334H77.9378L74.8253 73.8662H88.6283L87.6134 79.0952H59.1278L68.2621 35.9723Z" fill="white"/>
<path d="M116.384 59.4013H133.908L129.984 79.0952H122L120.714 74.749H120.444C119.271 76.1072 117.872 77.2617 116.249 78.2124C114.67 79.1631 112.595 79.6385 110.024 79.6385C108.039 79.6385 106.122 79.3216 104.272 78.6878C102.468 78.0087 100.844 76.9674 99.4008 75.5639C98.0024 74.1152 96.8747 72.2363 96.0177 69.9274C95.1606 67.6184 94.7321 64.8341 94.7321 61.5744C94.7321 58.0431 95.2734 54.6929 96.356 51.5238C97.4386 48.3546 99.0625 45.5703 101.228 43.1708C103.393 40.7261 106.099 38.8019 109.347 37.3985C112.595 35.995 116.384 35.2932 120.714 35.2932C124.052 35.2932 126.962 35.6781 129.443 36.4477C131.924 37.2174 134.269 38.0776 136.479 39.0283L133.908 52.2029H122.473C122.519 51.7048 122.586 51.1163 122.676 50.4372C122.767 49.7581 122.834 49.0564 122.879 48.332C122.924 47.5623 122.97 46.8153 123.015 46.091C123.06 45.3666 123.082 44.7328 123.082 44.1895C123.082 43.8273 123.06 43.4198 123.015 42.9671C122.97 42.4691 122.857 41.9937 122.676 41.541C122.496 41.0882 122.225 40.7261 121.864 40.4544C121.504 40.1375 120.985 39.979 120.308 39.979C119.135 39.979 118.053 40.4771 117.06 41.4731C116.113 42.4238 115.256 43.7141 114.489 45.3439C113.723 46.9285 113.046 48.7394 112.459 50.7767C111.918 52.814 111.445 54.8966 111.039 57.0245C110.678 59.107 110.385 61.167 110.159 63.2043C109.979 65.1963 109.888 66.9393 109.888 68.4334C109.888 68.8861 109.911 69.452 109.956 70.1311C110.001 70.8102 110.136 71.4893 110.362 72.1684C110.633 72.8022 110.993 73.3682 111.445 73.8662C111.941 74.3189 112.64 74.5453 113.542 74.5453C115.031 74.5453 116.474 73.7303 117.872 72.1005C119.271 70.4707 120.331 67.7543 121.053 63.9513H115.369L116.384 59.4013Z" fill="white"/>
<path d="M144.91 35.9723H173.396L172.313 41.1335H158.51L155.668 54.2402H167.239L166.156 59.3334H154.586L151.473 73.8662H165.276L164.261 79.0952H135.776L144.91 35.9723Z" fill="white"/>
<path d="M205.869 79.0952H190.036L182.525 47.9245L175.894 79.0952H169.805L178.939 35.9723H195.11L202.215 67.5505L208.913 35.9723H215.138L205.869 79.0952Z" fill="white"/>
<path d="M13.1104 89.106H34.1843L22.7248 142.812H42.439L40.7881 151H0L13.1104 89.106Z" fill="#23CE6B"/>
<path d="M67.8268 151H46.8501L59.9606 89.106H81.0344L67.8268 151Z" fill="#23CE6B"/>
<path d="M78.2348 142.13L110.185 96.5138H85.7126L87.1693 89.106H135.144L134.27 97.391L102.61 143.592H128.152L126.792 151H76.4867L78.2348 142.13Z" fill="#23CE6B"/>
<path d="M186.006 151H163.281L161.922 135.502H143.955L137.06 151H127.64L156.289 89.106H179.305L186.006 151ZM147.16 128.387H161.242L159.008 101.875L147.16 128.387Z" fill="#23CE6B"/>
<path d="M251.127 103.824C251.127 107.658 250.059 111.199 247.923 114.448C245.786 117.697 242.258 120.167 237.337 121.856L248.602 151H226.946L218.4 124.001H217.331L211.602 151H190.625L203.735 89.106H229.277C232.255 89.106 235.071 89.3009 237.726 89.6908C240.38 90.0157 242.678 90.7305 244.621 91.8352C246.628 92.8748 248.214 94.3694 249.379 96.3188C250.545 98.2033 251.127 100.705 251.127 103.824ZM223.158 117.762C224.842 117.762 226.266 117.21 227.431 116.105C228.661 114.936 229.633 113.539 230.345 111.914C231.122 110.29 231.672 108.568 231.996 106.748C232.319 104.864 232.481 103.239 232.481 101.875C232.481 100.185 232.19 98.7556 231.607 97.5859C231.025 96.3513 229.762 95.734 227.82 95.734H223.45L218.594 117.762H223.158Z" fill="#23CE6B"/>
<path d="M252.08 151L265.191 89.106H291.314C295.329 89.106 298.825 89.5283 301.803 90.3731C304.846 91.1529 307.338 92.485 309.281 94.3694C311.288 96.2538 312.777 98.7231 313.748 101.777C314.784 104.831 315.302 108.568 315.302 112.986C315.302 117.73 314.687 122.376 313.457 126.925C312.291 131.473 310.317 135.535 307.533 139.109C304.749 142.682 301.091 145.574 296.559 147.783C292.091 149.928 286.556 151 279.952 151H252.08ZM278.69 144.177C280.826 144.177 282.704 143.3 284.322 141.545C286.006 139.726 287.43 137.452 288.595 134.722C289.825 131.928 290.829 128.874 291.606 125.56C292.447 122.181 293.095 118.932 293.548 115.813C294.066 112.694 294.422 109.9 294.616 107.431C294.875 104.961 295.005 103.207 295.005 102.167C295.005 100.153 294.584 98.5931 293.742 97.4885C292.965 96.3188 291.573 95.734 289.566 95.734H284.905L274.514 144.177H278.69Z" fill="#23CE6B"/>
<path d="M319.935 64.9425C318.07 78.141 301.016 80.0854 297.477 69.8468C296.492 66.9999 294.253 64.8517 291.401 63.828L289.862 63.2768C286.428 62.0432 282.424 62.6328 279.131 64.8376C279.073 64.8779 279.012 64.9183 278.953 64.9567C275.63 67.1271 273.39 70.6383 272.991 74.4078L272.667 77.6566C272.585 78.4733 271.901 79.0952 271.083 79.0952H265.066C264.102 79.0952 263.359 78.2412 263.489 77.2819L263.878 74.4078C264.277 70.6383 262.783 67.1271 259.923 64.9567C259.871 64.9183 259.82 64.8779 259.767 64.8376C256.944 62.6328 253.066 62.0432 249.369 63.2768L247.712 63.828C244.644 64.8517 241.951 66.9999 240.361 69.8448C234.65 80.0833 218.006 78.1471 218.944 64.9425C219.922 55.9013 230.09 51.0071 236.845 54.71C239.401 56.1133 242.57 56.2667 245.557 55.2713L250.764 53.5349C252.722 52.8828 254.235 51.2171 254.713 49.2425C254.721 49.2142 254.727 49.1859 254.735 49.1577C255.225 47.179 254.616 45.2044 253.095 44.0576L249.132 41.0694C246.762 39.2825 243.66 38.6263 240.529 39.1957C233.706 40.4394 227.196 35.3151 228.061 27.883C228.735 21.5392 234.44 16.3946 240.802 16.3967C246.606 16.326 250.889 20.7659 251.169 26.1486C251.327 29.1792 252.805 31.8605 255.14 33.6211L259.111 36.6133C260.622 37.7521 262.742 37.8672 264.597 36.9283C264.727 36.8637 264.856 36.8011 264.986 36.7385C266.853 35.8461 268.165 34.037 268.374 32.0564L268.813 27.9214C269.146 24.7959 268.135 21.844 266.12 19.6655C260.039 13.0874 265.32 0.163543 276.335 0C287.315 0.161524 289.854 13.0854 282.376 19.6655C279.897 21.844 278.259 24.7979 277.926 27.9234L277.487 32.0564C277.278 34.037 278.204 35.8461 279.883 36.7385C280 36.8011 280.115 36.8637 280.231 36.9283C281.885 37.8672 284.03 37.7521 285.784 36.6133L290.389 33.6211C293.098 31.8605 295.148 29.1812 295.95 26.1486C297.371 20.7659 302.598 16.326 308.386 16.3946C314.749 16.3946 319.362 21.5392 318.687 27.883C317.977 35.3151 310.376 40.4374 303.817 39.1957C300.808 38.6263 297.566 39.2825 294.818 41.0694L290.221 44.0576C288.455 45.2044 287.426 47.179 287.497 49.1577C287.497 49.1859 287.499 49.2142 287.499 49.2425C287.56 51.2171 288.718 52.8828 290.537 53.5349L295.354 55.2632C298.208 56.2889 301.466 56.0123 304.425 54.6313C306.037 53.8782 307.807 53.4542 309.631 53.4542C315.996 53.4542 320.607 58.5987 319.935 64.9425Z" fill="white"/>
</svg>
