<svg width="1000" height="1000" viewBox="0 0 1000 1000" fill="none" xmlns="http://www.w3.org/2000/svg">
<g clip-path="url(#clip0_59_12)">
<path d="M499.898 982C760.52 982 971.796 766.201 971.796 500C971.796 233.799 760.52 18 499.898 18C239.276 18 28 233.799 28 500C28 766.201 239.276 982 499.898 982Z" fill="black"/>
<path d="M499.898 964.182C750.889 964.182 954.356 756.361 954.356 500C954.356 243.639 750.889 35.8179 499.898 35.8179C248.908 35.8179 45.4404 243.639 45.4404 500C45.4404 756.361 248.908 964.182 499.898 964.182Z" fill="#23CE6B"/>
<path fill-rule="evenodd" clip-rule="evenodd" d="M945.322 606.402C943.229 615.582 940.859 624.705 938.212 633.769C935.565 642.833 932.659 651.762 929.492 660.554L923.865 669.413V471.94L929.55 471.119C930.449 474.193 931.362 477.419 932.288 480.796C933.23 484.255 934.085 487.504 934.84 490.509C937.061 499.336 939.053 508.282 940.817 517.347C942.557 526.275 944.068 535.337 945.351 544.534L945.386 544.929V605.732L945.305 606.378L945.322 606.402ZM890.676 742.756C888.134 747.026 885.562 751.182 882.962 755.223C880.361 759.264 877.667 763.326 874.881 767.41L869.573 775.611V350.603L874.945 349.065L876.782 352.047L878.59 355.022C880.644 358.438 882.719 361.99 884.816 365.678C886.87 369.288 888.847 372.867 890.746 376.415L891.1 377.795V741.283L890.676 742.773V742.756ZM836.03 816.648C833.379 819.583 830.786 822.384 828.251 825.051C825.628 827.818 822.954 830.567 820.229 833.296L815.27 841.083V279.045L820.31 277.077L822.357 279.325L824.397 281.596C826.467 283.925 828.451 286.178 830.35 288.356C832.249 290.534 834.169 292.805 836.111 295.169L836.791 297.02V814.703L836.03 816.648ZM781.384 868.105C778.814 870.159 776.204 872.199 773.553 874.225C771.094 876.1 768.431 878.091 765.571 880.176L760.967 883.542V222.581L765.664 226.29C766.246 226.756 767.054 227.391 767.99 228.153C768.513 228.573 769.303 229.207 770.315 230.034C772.381 231.711 774.274 233.264 775.995 234.692C777.715 236.121 779.537 237.674 781.459 239.351L782.471 240.224V867.226L781.366 868.105H781.384ZM726.738 905.628C724.366 907.008 721.732 908.504 718.872 910.1C716.012 911.695 713.326 913.157 710.925 914.432L706.658 916.703V186.677L711.006 189.192C712.076 189.816 712.96 190.322 713.657 190.736L716.32 192.302C718.08 193.35 719.88 194.437 721.721 195.563C723.43 196.607 725.127 197.663 726.813 198.73L728.179 199.592V904.783L726.738 905.628ZM672.092 932.774C669.348 933.938 666.708 934.992 664.226 935.976C661.86 936.914 659.221 937.927 656.285 939.022L652.367 940.477V160.794L656.36 162.425L659.308 163.648C659.779 163.84 660.744 164.23 662.215 164.882C663.796 165.55 665.456 166.27 667.197 167.042C669.045 167.852 670.685 168.591 672.144 169.243L673.888 170.024V932.028L672.092 932.774ZM617.445 951.46C614.837 952.17 612.211 952.859 609.568 953.527C607.016 954.173 604.377 954.814 601.633 955.448L598.081 956.275V143.332L601.714 144.275L604.999 145.137L608.266 146.039C609.684 146.427 611.219 146.864 612.87 147.349C614.777 147.897 616.358 148.362 617.521 148.718L619.596 149.347V950.877L617.445 951.46ZM562.799 962.657C559.951 963.059 557.294 963.414 554.922 963.711C552.55 964.008 549.864 964.293 546.987 964.625L543.789 964.957V133.369L547.057 133.782L550.667 134.254L554.259 134.754C555.335 134.912 556.753 135.121 558.555 135.401C559.608 135.564 561.061 135.797 562.869 136.094L565.311 136.495V962.302L562.799 962.657ZM508.153 966.972H507.491C504.624 967.018 501.753 967.076 499.794 967.076C498.451 967.076 496.172 967.036 493.887 966.995H492.352L489.492 966.948V130.352H492.498C493.87 130.352 495.788 130.352 498.224 130.393C500.038 130.393 501.665 130.445 503.125 130.48L505.648 130.556L508.211 130.643L511.013 130.748V966.913L508.153 966.972ZM453.507 964.718C450.635 964.421 448.008 964.136 445.578 963.827C443.148 963.519 440.555 963.181 437.695 962.785L435.189 962.436V134.126L437.741 133.805C439.723 133.555 441.101 133.38 441.892 133.293C443.055 133.159 444.45 133.002 446.107 132.827L449.781 132.454L453.554 132.099L456.71 131.82V965.073L453.507 964.747V964.718ZM398.57 955.588C395.832 954.953 393.181 954.319 390.635 953.678C387.996 953.018 385.37 952.337 382.758 951.634L380.601 951.052V144.956L382.781 144.374C384.455 143.943 385.955 143.559 387.292 143.209C388.961 142.79 390.484 142.423 391.856 142.097L395.181 141.334C396.821 140.962 397.954 140.705 398.605 140.566L402.122 139.797V956.403L398.57 955.588ZM343.924 939.284C341.285 938.306 338.636 937.292 335.977 936.244C333.495 935.266 330.861 934.2 328.112 933.065L326.304 932.314V163.327L328.123 162.588C329.577 162.005 331.175 161.359 332.902 160.678C334.46 160.096 336.117 159.432 337.867 158.768L340.936 157.603L343.93 156.497L347.825 155.082V940.681L343.924 939.237V939.284ZM289.278 914.793C286.709 913.43 284.056 911.99 281.32 910.472C278.583 908.955 276.014 907.456 273.611 905.977L272.158 905.133V190.334L273.611 189.489C275.477 188.412 277.227 187.405 278.843 186.497C280.308 185.675 282.029 184.75 284.023 183.637L286.697 182.199C287.577 181.726 288.489 181.242 289.435 180.749L293.679 178.519V917.023L289.423 914.764L289.278 914.793ZM234.632 880.677C232.004 878.767 229.344 876.783 226.65 874.726C223.957 872.668 221.395 870.622 218.965 868.588L217.86 867.715V227.606L218.976 226.721C221.011 225.11 222.844 223.676 224.476 222.418C226.228 221.079 228.072 219.685 230.01 218.237C230.981 217.509 231.754 216.927 232.4 216.49C233.417 215.739 234.196 215.174 234.777 214.743L239.382 211.395V884.001L234.777 880.647L234.632 880.677ZM179.986 833.954C177.273 831.236 174.603 828.504 171.975 825.755C169.347 823.007 166.747 820.212 164.173 817.37L163.412 815.414V279.587L164.185 277.625C166.03 275.61 167.942 273.558 169.923 271.47C171.83 269.463 173.767 267.452 175.736 265.437C176.434 264.721 177.143 264.011 177.852 263.294C178.562 262.578 179.265 261.885 179.963 261.187L184.91 256.278V838.868L179.963 833.925L179.986 833.954ZM125.34 768.365C122.538 764.297 119.825 760.238 117.201 756.189C114.577 752.14 112.011 748.01 109.504 743.798L109.08 742.308V351.406L109.527 349.881C111.465 346.748 113.426 343.658 115.41 340.611C117.476 337.443 119.536 334.353 121.59 331.341L123.45 328.633L125.316 325.954L130.601 327.626V776.507L125.311 768.318L125.34 768.365ZM70.6936 662.255C67.5427 653.567 64.6535 644.803 62.0258 635.964C59.3866 627.067 57.005 618.094 54.8811 609.045L54.7998 608.381V473.687L54.9277 472.883C56.6833 466.851 58.5494 460.851 60.5259 454.885C62.5025 448.918 64.5798 443.023 66.7579 437.2C67.4206 435.419 68.0737 433.703 68.7171 432.053C69.4263 430.219 70.1007 428.501 70.7285 426.929L76.3268 428.006V671.084L70.6936 662.255Z" fill="black"/>
<path d="M820.263 794.633C997.197 617.411 997.197 330.077 820.263 152.855C643.329 -24.3668 356.462 -24.3667 179.528 152.855C2.59365 330.077 2.59361 617.411 179.528 794.633C356.462 971.855 643.329 971.855 820.263 794.633Z" fill="black"/>
<path d="M804.268 778.614C972.369 610.24 972.369 337.251 804.268 168.877C636.168 0.502576 363.623 0.502565 195.522 168.877C27.4218 337.251 27.4218 610.24 195.522 778.614C363.623 946.988 636.168 946.988 804.268 778.614Z" fill="#23CE6B"/>
<path d="M499.899 791.202C674.941 791.202 816.841 649.072 816.841 473.745C816.841 298.418 674.941 156.287 499.899 156.287C324.857 156.287 182.957 298.418 182.957 473.745C182.957 649.072 324.857 791.202 499.899 791.202Z" fill="black"/>
<path d="M499.899 764.737C660.348 764.737 790.418 634.455 790.418 473.745C790.418 313.034 660.348 182.752 499.899 182.752C339.449 182.752 209.379 313.034 209.379 473.745C209.379 634.455 339.449 764.737 499.899 764.737Z" fill="#23CE6B"/>
<path fill-rule="evenodd" clip-rule="evenodd" d="M564.386 586.178C565.735 586.033 567.142 585.852 568.595 585.631C570.479 585.346 572.403 584.996 574.351 584.583C576.193 584.198 578.106 583.738 580.071 583.203C581.954 582.69 583.85 582.12 585.727 581.497C587.605 580.874 589.396 580.216 591.262 579.476C593.068 578.754 594.876 577.978 596.686 577.147C598.496 576.316 600.261 575.439 601.982 574.515C603.699 573.599 605.41 572.628 607.115 571.604C608.82 570.579 610.477 569.513 612.085 568.407C613.69 567.304 615.294 566.14 616.899 564.913C618.503 563.686 620.054 562.435 621.55 561.157C623.046 559.876 624.53 558.533 626.003 557.128C627.475 555.723 628.892 554.296 630.252 552.848C631.647 551.377 633.004 549.865 634.322 548.312C635.639 546.759 636.926 545.162 638.182 543.52C639.432 541.884 640.658 540.207 641.844 538.483C644.76 534.287 647.407 529.909 649.768 525.376C651.921 521.252 653.755 516.97 655.256 512.566C656.636 508.517 657.65 504.353 658.284 500.122C658.88 496.144 659.074 492.115 658.866 488.098C658.652 484.118 658.005 480.174 656.936 476.336C655.861 472.497 654.372 468.787 652.494 465.272C650.541 461.637 648.219 458.212 645.565 455.053C642.751 451.709 639.638 448.629 636.263 445.853C634.876 444.688 633.448 443.594 631.979 442.569C630.491 441.503 628.938 440.479 627.328 439.5C625.718 438.522 624.055 437.567 622.352 436.67C620.648 435.774 618.864 434.924 617.085 434.097C615.302 433.293 613.483 432.538 611.626 431.832C609.77 431.125 607.89 430.471 605.987 429.869C604.075 429.287 602.145 428.705 600.203 428.227C598.261 427.75 596.279 427.296 594.308 426.911C592.337 426.527 590.413 426.218 588.495 425.956C586.576 425.694 584.611 425.485 582.646 425.333C580.681 425.182 578.728 425.083 576.833 425.048C574.938 425.013 573.002 425.048 571.107 425.106C569.212 425.164 567.293 425.322 565.421 425.514L564.41 425.624V451.309C565.125 451.21 565.851 451.129 566.584 451.059C567.944 450.923 569.326 450.832 570.729 450.785C571.549 450.756 572.391 450.744 573.246 450.744C574.101 450.744 574.99 450.744 575.85 450.791C576.711 450.837 577.594 450.867 578.461 450.925C579.327 450.983 580.205 451.059 581.094 451.146L582.065 451.245L583.524 451.396L582.699 452.602L582.146 453.411L581.937 453.72L581.879 453.801C581.641 454.174 581.396 454.564 581.17 454.966C580.931 455.397 580.705 455.828 580.501 456.247C580.298 456.666 580.112 457.103 579.92 457.54C579.757 457.953 579.612 458.378 579.484 458.803C579.186 459.75 578.991 460.726 578.902 461.715C578.825 462.612 578.862 463.516 579.013 464.405C579.153 465.212 579.404 465.995 579.757 466.734V466.734C580.112 467.469 580.559 468.156 581.088 468.778L582.164 469.704C582.844 470.152 583.478 470.594 584.047 471.043C584.628 471.489 585.185 471.965 585.716 472.469C586.217 472.941 586.687 473.445 587.123 473.977C587.525 474.47 587.89 474.992 588.216 475.538C588.462 475.955 588.676 476.392 588.855 476.842C589.209 477.711 589.406 478.636 589.436 479.573C589.446 480.037 589.415 480.501 589.343 480.959C589.256 481.521 589.125 482.076 588.954 482.619C588.774 483.197 588.556 483.763 588.303 484.313C588.037 484.891 587.742 485.454 587.419 486.002C587.082 486.584 586.704 487.166 586.303 487.702C585.902 488.238 585.35 488.942 584.803 489.565C584.257 490.188 583.681 490.794 583.059 491.382C582.437 491.97 581.803 492.547 581.117 493.129C580.431 493.711 579.728 494.247 579.001 494.771C578.176 495.353 577.339 495.935 576.49 496.436C575.641 496.954 574.746 497.438 573.891 497.88C573.019 498.323 572.13 498.727 571.223 499.091C570.345 499.447 569.444 499.767 568.531 500.041C567.683 500.297 566.816 500.518 565.939 500.704C565.415 500.809 564.898 500.902 564.375 500.984V526.674C565.718 526.523 567.066 526.308 568.444 526.04C570.049 525.725 571.636 525.329 573.188 524.875C574.74 524.421 576.31 523.868 577.839 523.262C579.368 522.657 580.926 521.964 582.431 521.218C583.937 520.473 585.431 519.646 586.89 518.773C588.349 517.899 589.797 516.939 591.151 515.96C592.506 514.982 593.965 513.835 595.308 512.682C596.651 511.529 597.918 510.353 599.139 509.084C600.36 507.814 601.505 506.551 602.586 505.223C603.668 503.895 604.679 502.533 605.615 501.147C606.551 499.761 607.429 498.3 608.214 496.838C608.983 495.401 609.675 493.923 610.289 492.413C610.886 490.953 611.399 489.46 611.824 487.941C612.241 486.469 612.569 484.974 612.806 483.463C613.089 481.683 613.242 479.885 613.266 478.083C613.291 476.342 613.182 474.601 612.94 472.877C612.698 471.188 612.327 469.519 611.83 467.887C611.352 466.338 610.759 464.828 610.057 463.368L609.94 463.129L609.783 462.809L609.731 462.71L609.504 462.268L609.208 461.685L609.667 461.231L610.463 460.457L610.923 460.008L611.504 460.317C612.353 460.775 613.198 461.262 614.039 461.779C614.876 462.285 615.696 462.809 616.48 463.339C617.265 463.869 618.05 464.416 618.806 464.97C619.561 465.523 620.294 466.134 620.997 466.716C623.007 468.372 624.863 470.206 626.543 472.196C628.126 474.076 629.513 476.113 630.682 478.275C631.808 480.371 632.699 482.586 633.339 484.878C633.973 487.158 634.347 489.502 634.455 491.865C634.566 494.397 634.414 496.934 634.002 499.435C633.553 502.137 632.864 504.793 631.944 507.372C630.94 510.186 629.732 512.922 628.328 515.559C626.78 518.471 625.06 521.288 623.177 523.996C622.247 525.347 621.311 526.636 620.369 527.862C619.428 529.089 618.441 530.312 617.41 531.531C616.393 532.736 615.358 533.86 614.312 535.024C613.266 536.189 612.155 537.254 611.056 538.297C609.958 539.339 608.812 540.387 607.673 541.36C606.534 542.332 605.348 543.316 604.185 544.213C603.022 545.11 601.761 546.018 600.534 546.856C599.308 547.695 598 548.539 596.75 549.296C595.405 550.108 594.074 550.863 592.756 551.561C591.413 552.283 590.047 552.959 588.686 553.588C587.326 554.216 585.867 554.845 584.495 555.393C583.123 555.94 581.658 556.464 580.21 556.947C578.763 557.431 577.24 557.891 575.833 558.269C574.351 558.671 572.868 559.026 571.403 559.335C569.872 559.661 568.392 559.931 566.962 560.144C566.125 560.272 565.288 560.389 564.462 560.482L564.386 586.178ZM343.814 428.326C339.791 430.267 335.571 432.381 331.153 434.667C326.734 436.954 322.225 439.378 317.625 441.94L314.387 443.728L315.602 447.221L320.927 462.361L322.624 467.205L327.13 464.719C331.323 462.39 335.422 460.185 339.425 458.104C343.429 456.024 347.246 454.096 350.877 452.322C354.528 450.552 358.082 448.914 361.539 447.408C364.996 445.902 368.306 444.562 371.469 443.39C374.523 442.256 377.482 441.265 380.346 440.415C383.21 439.564 385.956 438.877 388.583 438.353C391.108 437.839 393.661 437.47 396.228 437.247C398.579 437.043 400.941 437.006 403.297 437.136C405.302 437.248 407.295 437.523 409.256 437.957C411.185 438.38 413.075 438.964 414.906 439.704V439.704C416.768 440.469 418.565 441.384 420.278 442.441C422.069 443.557 423.777 444.803 425.388 446.167C427.227 447.727 428.961 449.405 430.579 451.193C432.365 453.157 434.048 455.213 435.619 457.353C437.27 459.589 438.91 462.029 440.538 464.673C442.165 467.316 443.785 470.152 445.398 473.18L448.142 478.327L448.694 479.369L448.787 479.544L448.868 479.701L448.95 479.853C451.955 485.542 455.129 491.545 458.42 497.566C461.71 503.587 465.256 509.881 468.971 516.083C472.686 522.284 476.563 528.386 480.685 534.331C484.728 540.207 489.063 545.876 493.672 551.317C498.255 556.743 503.238 561.817 508.578 566.497C513.628 570.934 519.135 574.82 525.006 578.09C530.661 581.234 536.727 583.57 543.028 585.031C549.527 586.503 556.218 586.934 562.852 586.306C563.346 586.266 563.852 586.213 564.363 586.155V560.47C563.724 560.546 563.09 560.616 562.462 560.674C552.213 561.612 542.598 558.636 533.604 553C524.611 547.363 516.35 539.176 508.607 529.574C500.863 519.972 493.893 509.194 487.411 498.131C480.929 487.067 475.046 476.004 469.738 465.936L466.175 459.193L466.14 459.112C464.086 455.257 462.001 451.645 459.885 448.275C457.769 444.906 455.606 441.773 453.397 438.877C451.295 436.105 449.042 433.452 446.647 430.929C444.44 428.595 442.083 426.409 439.59 424.384C437.172 422.416 434.608 420.633 431.922 419.05C429.335 417.534 426.631 416.227 423.836 415.143C421.051 414.066 418.183 413.219 415.261 412.61C412.247 411.978 409.191 411.576 406.116 411.405C403.109 411.233 400.093 411.258 397.088 411.481C393.894 411.711 390.715 412.12 387.566 412.704C384.291 413.309 380.921 414.097 377.456 415.068C373.992 416.038 370.411 417.191 366.713 418.526C363.155 419.815 359.458 421.279 355.621 422.917C351.784 424.555 347.833 426.348 343.768 428.297L343.814 428.326ZM564.386 425.624V451.309C563.805 451.391 563.166 451.484 562.567 451.583C561.276 451.8 560.005 452.058 558.753 452.357C557.501 452.656 556.3 452.994 555.149 453.37C553.736 453.823 552.356 454.37 551.016 455.007C549.771 455.597 548.574 456.282 547.435 457.056C546.368 457.781 545.37 458.602 544.452 459.508C543.583 460.367 542.803 461.313 542.127 462.332L541.505 463.275H541.545C541.163 463.96 540.827 464.67 540.54 465.4C540.116 466.51 539.805 467.659 539.61 468.83C539.407 470.048 539.314 471.281 539.331 472.516C539.352 473.847 539.473 475.174 539.691 476.487C540.005 478.426 540.389 480.237 540.854 481.92C541.274 483.553 541.787 485.161 542.389 486.735C542.945 488.183 543.6 489.592 544.348 490.951C545.038 492.195 545.827 493.381 546.708 494.497C547.457 495.434 548.288 496.303 549.19 497.094C550.062 497.852 551.006 498.521 552.01 499.091C553.004 499.656 554.054 500.117 555.143 500.466C556.24 500.816 557.37 501.054 558.515 501.176L559.207 501.252C559.788 501.293 560.369 501.316 560.922 501.31C561.755 501.307 562.587 501.261 563.416 501.17V501.17L564.398 501.042V526.674L563.712 526.75C562.167 526.906 560.615 526.984 559.061 526.983C557.547 526.978 556.033 526.894 554.527 526.733L554.091 526.686C551.75 526.41 549.438 525.933 547.179 525.259C542.517 523.866 538.173 521.574 534.389 518.511C532.453 516.934 530.668 515.18 529.058 513.27C527.438 511.359 525.976 509.318 524.687 507.168C523.315 504.881 522.113 502.497 521.088 500.035C519.981 497.379 519.041 494.656 518.275 491.883C517.446 488.87 516.78 485.814 516.28 482.729C515.762 479.615 515.48 476.465 515.438 473.308C515.398 470.367 515.616 467.429 516.089 464.527C516.54 461.778 517.254 459.08 518.222 456.468C519.168 453.909 520.372 451.452 521.815 449.137C523.266 446.804 524.942 444.62 526.82 442.616C528.773 440.547 530.914 438.666 533.215 436.996C535.642 435.23 538.212 433.672 540.9 432.338C543.767 430.909 546.736 429.696 549.783 428.711C551.399 428.187 553.056 427.715 554.73 427.307C556.405 426.9 558.172 426.533 559.962 426.224C561.375 426.009 562.887 425.793 564.386 425.624V425.624Z" fill="black"/>
</g>
<defs>
<clipPath id="clip0_59_12">
<rect width="943.796" height="964" fill="white" transform="translate(28 18)"/>
</clipPath>
</defs>
</svg>
